<?xml version="1.0" encoding="utf-8"?>
<!-- Generator: Adobe Illustrator 16.0.0, SVG Export Plug-In . SVG Version: 6.00 Build 0)  -->
<!DOCTYPE svg PUBLIC "-//W3C//DTD SVG 1.1//EN" "http://www.w3.org/Graphics/SVG/1.1/DTD/svg11.dtd">
<svg version="1.1" id="Шар_1" xmlns="http://www.w3.org/2000/svg" xmlns:xlink="http://www.w3.org/1999/xlink" x="0px" y="0px"
	 width="28px" height="28px" viewBox="0 0 28 28" enable-background="new 0 0 28 28" xml:space="preserve">
<g>
	<path fill="#C3E678" d="M14,28C6.28,28,0,21.72,0,14C0,6.28,6.28,0,14,0c7.719,0,14,6.28,14,14C28,21.72,21.719,28,14,28z"/>
	<path fill="#A5D76E" d="M20.534,23.333c-7.72,0-14-6.281-14-14c0-3.231,1.111-6.202,2.957-8.574C3.979,2.642,0,7.859,0,14
		c0,7.72,6.28,14,14,14c4.489,0,8.479-2.131,11.043-5.426C23.625,23.058,22.112,23.333,20.534,23.333z"/>
	<path fill="#FFFFFF" d="M11.104,21.242c-0.247,0-0.494-0.095-0.683-0.283l-5.793-5.793c-0.377-0.377-0.377-0.989,0-1.366
		c0.376-0.377,0.988-0.377,1.365,0l5.11,5.11l9.938-9.937c0.377-0.377,0.988-0.377,1.365,0c0.377,0.376,0.377,0.988,0,1.365
		L11.786,20.958C11.598,21.147,11.351,21.242,11.104,21.242z"/>
</g>
</svg>
