<?xml version="1.0" encoding="utf-8"?>
<!-- Generator: Adobe Illustrator 16.0.0, SVG Export Plug-In . SVG Version: 6.00 Build 0)  -->
<!DOCTYPE svg PUBLIC "-//W3C//DTD SVG 1.1//EN" "http://www.w3.org/Graphics/SVG/1.1/DTD/svg11.dtd">
<svg version="1.1" id="Шар_1" xmlns="http://www.w3.org/2000/svg" xmlns:xlink="http://www.w3.org/1999/xlink" x="0px" y="0px"
	 width="33px" height="33px" viewBox="0 0 33 33" enable-background="new 0 0 33 33" xml:space="preserve">
<g>
	<g>
		<circle fill="#00B181" cx="16.5" cy="16.5" r="13.533"/>
	</g>
	<g>
		<path fill="#00B181" d="M16.5,33C7.401,33,0,25.598,0,16.5S7.401,0,16.5,0C25.598,0,33,7.402,33,16.5S25.598,33,16.5,33z
			 M16.5,1.368C8.155,1.368,1.367,8.156,1.367,16.5c0,8.344,6.788,15.132,15.133,15.132c8.344,0,15.132-6.788,15.132-15.132
			C31.632,8.156,24.844,1.368,16.5,1.368z"/>
	</g>
	<g>
		<path fill="#FFFFFF" d="M22.434,12.689l-6.783,8.673c-0.161,0.182-0.381,0.283-0.604,0.303c-0.02,0-0.02,0-0.039,0
			c-0.222,0-0.424-0.08-0.583-0.242l-3.803-3.803c-0.321-0.32-0.321-0.844,0-1.167c0.32-0.321,0.846-0.321,1.166,0l3.16,3.159
			l6.219-7.989c0.301-0.343,0.824-0.382,1.167-0.101C22.674,11.824,22.715,12.348,22.434,12.689z"/>
	</g>
</g>
</svg>
