<?xml version="1.0" encoding="utf-8"?>
<!-- Generator: Adobe Illustrator 16.0.0, SVG Export Plug-In . SVG Version: 6.00 Build 0)  -->
<!DOCTYPE svg PUBLIC "-//W3C//DTD SVG 1.1//EN" "http://www.w3.org/Graphics/SVG/1.1/DTD/svg11.dtd">
<svg version="1.1" id="Шар_1" xmlns="http://www.w3.org/2000/svg" xmlns:xlink="http://www.w3.org/1999/xlink" x="0px" y="0px"
	 width="33px" height="33.048px" viewBox="0 0 33 33.048" enable-background="new 0 0 33 33.048" xml:space="preserve" fill="#ffffff">
<g>
	<g>
		<path d="M26.094,20.473c-0.677-0.705-1.493-1.082-2.358-1.082c-0.857,0-1.68,0.37-2.385,1.074l-2.204,2.197
			c-0.182-0.098-0.363-0.188-0.537-0.279c-0.251-0.125-0.488-0.244-0.69-0.369c-2.064-1.312-3.941-3.021-5.741-5.231
			c-0.871-1.102-1.457-2.03-1.883-2.971c0.572-0.523,1.102-1.067,1.618-1.591c0.195-0.195,0.391-0.397,0.586-0.593
			c1.465-1.464,1.465-3.362,0-4.827l-1.904-1.904c-0.216-0.216-0.439-0.439-0.648-0.663C9.529,3.802,9.089,3.355,8.635,2.937
			C7.958,2.267,7.15,1.912,6.299,1.912c-0.852,0-1.675,0.355-2.372,1.025C3.92,2.943,3.92,2.943,3.914,2.951L1.542,5.343
			C0.649,6.236,0.14,7.324,0.029,8.586c-0.168,2.037,0.432,3.934,0.893,5.176c1.13,3.048,2.817,5.873,5.336,8.9
			c3.055,3.648,6.73,6.529,10.93,8.559c1.604,0.76,3.745,1.66,6.138,1.812c0.146,0.008,0.3,0.015,0.439,0.015
			c1.611,0,2.964-0.579,4.024-1.729c0.007-0.014,0.021-0.021,0.028-0.035c0.362-0.439,0.781-0.837,1.221-1.262
			c0.3-0.287,0.606-0.586,0.907-0.9c0.689-0.719,1.053-1.556,1.053-2.414c0-0.864-0.37-1.694-1.074-2.392L26.094,20.473z
			 M28.591,27.816C28.584,27.816,28.584,27.824,28.591,27.816c-0.272,0.293-0.551,0.559-0.852,0.852
			c-0.453,0.432-0.913,0.886-1.346,1.395c-0.705,0.754-1.534,1.109-2.623,1.109c-0.104,0-0.216,0-0.32-0.008
			c-2.071-0.132-3.997-0.941-5.441-1.631c-3.947-1.912-7.414-4.625-10.294-8.064c-2.379-2.866-3.97-5.517-5.022-8.363
			C2.044,11.37,1.807,10.017,1.912,8.74c0.069-0.816,0.384-1.492,0.963-2.071L5.252,4.29c0.342-0.321,0.704-0.496,1.061-0.496
			c0.439,0,0.795,0.265,1.019,0.488C7.338,4.29,7.345,4.297,7.352,4.304c0.426,0.398,0.83,0.809,1.255,1.249
			c0.217,0.223,0.44,0.446,0.663,0.676l1.904,1.904c0.739,0.739,0.739,1.422,0,2.162c-0.202,0.203-0.397,0.404-0.6,0.6
			c-0.586,0.6-1.144,1.158-1.751,1.702c-0.014,0.014-0.028,0.021-0.035,0.035c-0.6,0.6-0.488,1.186-0.362,1.583
			c0.007,0.021,0.014,0.042,0.021,0.062c0.496,1.2,1.193,2.33,2.253,3.676l0.008,0.007c1.925,2.371,3.955,4.22,6.193,5.636
			c0.286,0.181,0.579,0.328,0.858,0.468c0.25,0.125,0.487,0.244,0.689,0.369c0.028,0.014,0.057,0.035,0.084,0.049
			c0.237,0.119,0.461,0.175,0.691,0.175c0.578,0,0.941-0.362,1.06-0.481l2.386-2.386c0.237-0.237,0.614-0.522,1.054-0.522
			c0.432,0,0.787,0.271,1.004,0.508c0.007,0.008,0.007,0.008,0.014,0.015l3.844,3.843C29.302,26.345,29.302,27.077,28.591,27.816z"
			/>
		<path d="M17.835,7.861c1.828,0.308,3.487,1.172,4.812,2.497c1.325,1.326,2.184,2.985,2.497,4.813
			c0.077,0.46,0.475,0.781,0.928,0.781c0.056,0,0.104-0.007,0.16-0.014c0.517-0.084,0.858-0.572,0.774-1.088
			c-0.376-2.211-1.423-4.227-3.02-5.824c-1.598-1.597-3.613-2.644-5.824-3.02c-0.517-0.084-0.997,0.258-1.088,0.767
			C16.985,7.282,17.32,7.777,17.835,7.861z"/>
		<path d="M32.986,14.578c-0.621-3.641-2.337-6.954-4.974-9.591c-2.637-2.636-5.95-4.352-9.591-4.973
			c-0.509-0.091-0.99,0.258-1.081,0.767c-0.084,0.517,0.258,0.998,0.774,1.088c3.25,0.551,6.215,2.092,8.572,4.443
			c2.357,2.357,3.892,5.322,4.442,8.573c0.077,0.46,0.475,0.781,0.929,0.781c0.055,0,0.104-0.007,0.16-0.014
			C32.727,15.576,33.076,15.087,32.986,14.578z"/>
	</g>
</g>
</svg>
