<?xml version="1.0" encoding="utf-8"?>
<!-- Generator: Adobe Illustrator 16.0.0, SVG Export Plug-In . SVG Version: 6.00 Build 0)  -->
<!DOCTYPE svg PUBLIC "-//W3C//DTD SVG 1.1//EN" "http://www.w3.org/Graphics/SVG/1.1/DTD/svg11.dtd">
<svg fill="#fff" version="1.1" id="Слой_1" xmlns="http://www.w3.org/2000/svg" xmlns:xlink="http://www.w3.org/1999/xlink" x="0px" y="0px"
	 width="25px" height="25.006px" viewBox="0 0 25 25.006" enable-background="new 0 0 25 25.006" xml:space="preserve">
<g>
	<path d="M24.783,23.73l-6.076-6.077c1.63-1.873,2.617-4.319,2.617-6.991C21.324,4.779,16.539,0,10.662,0C4.779,0,0,4.785,0,10.662
		c0,5.877,4.784,10.662,10.662,10.662c2.672,0,5.117-0.987,6.991-2.617l6.077,6.077c0.144,0.144,0.338,0.222,0.526,0.222
		s0.383-0.072,0.526-0.222C25.072,24.496,25.072,24.019,24.783,23.73z M1.491,10.662c0-5.057,4.114-9.165,9.165-9.165
		c5.057,0,9.165,4.114,9.165,9.165c0,5.051-4.108,9.171-9.165,9.171C5.605,19.833,1.491,15.719,1.491,10.662z"/>
</g>
</svg>
