<?xml version="1.0" encoding="utf-8"?>
<!-- Generator: Adobe Illustrator 16.0.0, SVG Export Plug-In . SVG Version: 6.00 Build 0)  -->
<!DOCTYPE svg PUBLIC "-//W3C//DTD SVG 1.1//EN" "http://www.w3.org/Graphics/SVG/1.1/DTD/svg11.dtd">
<svg version="1.1" id="Шар_1" xmlns="http://www.w3.org/2000/svg" xmlns:xlink="http://www.w3.org/1999/xlink" x="0px" y="0px"
	 width="32px" height="32px" viewBox="0 0 32 32" enable-background="new 0 0 32 32" xml:space="preserve" fill="#00b181">
<g>
	<path d="M16,0C7.178,0,0,7.178,0,16c0,8.822,7.178,16,16,16s16-7.178,16-16C32,7.178,24.822,0,16,0z M16,29.156
		C8.746,29.156,2.845,23.253,2.845,16C2.845,8.746,8.746,2.844,16,2.844S29.155,8.746,29.155,16
		C29.155,23.253,23.254,29.156,16,29.156z"/>
	<path d="M16,3.016c-0.784,0-1.422,0.638-1.422,1.422v10.643H7.957c-0.784,0-1.422,0.638-1.422,1.422s0.638,1.423,1.422,1.423H16
		c0.784,0,1.422-0.639,1.422-1.423V4.438C17.422,3.654,16.784,3.016,16,3.016z"/>
</g>
</svg>
