<svg xmlns="http://www.w3.org/2000/svg" width="52" height="50.018"><path fill="#0055B8" d="M24.666 49.824a1.858 1.858 0 0 0 1.813-1.608c.024-.174 2.587-17.515 15.141-31.798a1.865 1.865 0 0 0 .208-2.175c-.429-.731-1.355-1.664-3.342-1.951-1.453-.331-2.839-.162-4.296.495-.124.054-.24.109-.355.172-1.418.715-2.713 1.802-3.964 2.852-2.018 1.693-3.92 3.291-6.065 3.291-.097 0-.202-.004-.32-.013l-.05-.011c-1.067-.373-2.914-1.892-4.397-3.112-2.467-2.029-4.597-3.781-6.536-3.781-2.965 0-5.503 1.025-5.609 1.068a1.867 1.867 0 0 0-1.076 2.278c.064.319.199.604.393.84 4.267 5.192 4.267 5.192 7.242 9.041 2.456 3.15 5.87 4.278 9.639 3.167l.423-.125-.196.396c-2.157 4.354-3.069 8.33-2.711 11.818.016.149.049.298.101.44 1.544 4.294 2.065 7.064 2.087 7.181a1.865 1.865 0 0 0 1.836 1.536v.193l.034-.194zm-.225-1.831c-.005-.028-.533-2.93-2.159-7.451-.666-6.438 3.73-13.544 6.357-17.147-2.013 1.755-5.157 3.937-8.347 3.937-2.139 0-3.995-.99-5.516-2.942-2.992-3.869-2.992-3.869-7.273-9.08l-.169-.206.069-.026-.198-.143.322-.132c.094-.039 2.336-.944 4.976-.944 1.34 0 3.348 1.651 5.473 3.4 1.864 1.533 3.791 3.118 5.189 3.487.191.015.415.029.642.029 2.754 0 4.983-1.871 7.139-3.681 1.243-1.043 2.417-2.029 3.668-2.652a2.52 2.52 0 0 1 .254-.124c1.148-.521 2.228-.645 3.316-.377.743.095 1.749.376 2.202 1.148l.07.12-.092.104C27.441 30.017 24.847 47.809 24.822 47.986l-.167 1.205-.214-1.198z"/><path fill="#0055B8" d="M24.425.064c-3.988 0-7.233 3.245-7.233 7.233s3.245 7.233 7.233 7.233 7.233-3.245 7.233-7.233S28.413.064 24.425.064zm0 12.794c-3.066 0-5.561-2.494-5.561-5.561s2.495-5.561 5.561-5.561c3.065 0 5.561 2.494 5.561 5.561s-2.496 5.561-5.561 5.561z"/><path fill="#00B181" d="M48.284 8.053c1.049-1.339 2.519-1.664 3.103-1.741a.709.709 0 0 0-.001-1.403c-.583-.077-2.052-.402-3.102-1.741a4.712 4.712 0 0 1-.967-2.515.71.71 0 0 0-.705-.653.711.711 0 0 0-.705.653 4.706 4.706 0 0 1-.965 2.515c-1.05 1.339-2.52 1.664-3.104 1.741-.35.047-.613.348-.613.701s.264.654.614.701c.583.077 2.053.401 3.102 1.741.747.952.926 1.983.966 2.515a.71.71 0 0 0 .705.653.71.71 0 0 0 .705-.653 4.71 4.71 0 0 1 .967-2.514zm-1.56-.218l-.111.188-.11-.188a5.922 5.922 0 0 0-2.123-2.113l-.191-.112.189-.11a5.918 5.918 0 0 0 2.123-2.115l.11-.188.111.188A5.914 5.914 0 0 0 48.844 5.5l.19.11-.19.111a5.92 5.92 0 0 0-1.676 1.458 6.139 6.139 0 0 0-.444.656zM7.058 39.368c1.05-1.339 2.52-1.663 3.103-1.741.35-.046.614-.348.614-.7s-.264-.655-.614-.701c-.583-.077-2.052-.401-3.103-1.741a4.723 4.723 0 0 1-.966-2.515.71.71 0 0 0-.705-.653.71.71 0 0 0-.705.653 4.729 4.729 0 0 1-.966 2.515c-1.05 1.34-2.52 1.664-3.103 1.741a.708.708 0 0 0 .001 1.401c.583.078 2.052.402 3.103 1.741.745.952.925 1.984.966 2.515a.71.71 0 0 0 .705.654.71.71 0 0 0 .705-.654c.04-.53.219-1.563.965-2.515zm-1.56-.217l-.111.189-.111-.188a5.913 5.913 0 0 0-2.122-2.113l-.19-.111.19-.111a5.895 5.895 0 0 0 2.122-2.114l.111-.188.111.188a5.881 5.881 0 0 0 2.122 2.114l.19.111-.19.111a5.887 5.887 0 0 0-2.122 2.112z"/></svg>