<svg xmlns="http://www.w3.org/2000/svg" width="59.732" height="56"><path fill="#64AF80" d="M40.23 46.418a.953.953 0 0 1-.951.953H20.454a.952.952 0 0 1-.951-.953v-4.432c0-.525.426-.951.951-.951h18.825c.524 0 .951.426.951.951v4.432z"/><path fill="#C8CFD6" d="M56.933 0H2.8A2.8 2.8 0 0 0 0 2.8v50.4A2.8 2.8 0 0 0 2.8 56h54.133a2.8 2.8 0 0 0 2.8-2.8V2.8a2.801 2.801 0 0 0-2.8-2.8zM10.267 2.799a.934.934 0 1 1-.001 1.867.934.934 0 0 1 .001-1.867zm-3.734 0a.933.933 0 1 1 0 1.866.933.933 0 0 1 0-1.866zm-3.733 0a.933.933 0 1 1 0 1.866.933.933 0 0 1 0-1.866zM57.866 53.2a.934.934 0 0 1-.934.933H2.8a.934.934 0 0 1-.934-.933V8.4c0-.516.418-.934.934-.934h54.133c.516 0 .934.418.934.934v44.8zm-.933-48.533H14A.934.934 0 1 1 14 2.8h42.933a.934.934 0 1 1 0 1.867z"/><path fill="#C8CFD6" d="M16.726 13.333h26.281a.934.934 0 0 1 0 1.867H16.726a.933.933 0 1 1 0-1.867zm5.035 3.468h16.211a.934.934 0 0 1 0 1.867H21.761a.934.934 0 0 1 0-1.867z"/><g opacity=".3" fill="#1D1D1B"><circle cx="29.866" cy="44.202" r=".933"/><circle cx="33.6" cy="44.202" r=".933"/><circle cx="26.133" cy="44.202" r=".933"/></g><path fill="#C8CFD6" d="M10.013 25.081H49.72a.933.933 0 1 1 0 1.867H10.013a.934.934 0 0 1 0-1.867z"/><path fill="#3055B6" d="M10.013 25.081h14.934a.933.933 0 1 1 0 1.867H10.013a.934.934 0 0 1 0-1.867z"/><circle fill="#3055B6" cx="26.106" cy="26.005" r="2.35"/><path fill="#C8CFD6" d="M10.013 33.134H49.72a.933.933 0 1 1 0 1.868H10.013a.934.934 0 1 1 0-1.868z"/><path fill="#3055B6" d="M10.013 33.134h23.66a.934.934 0 1 1 0 1.868h-23.66a.934.934 0 1 1 0-1.868z"/><circle fill="#3055B6" cx="34.279" cy="34.059" r="2.35"/></svg>