<svg xmlns="http://www.w3.org/2000/svg" width="59.733" height="56"><path fill="#C8CFD6" d="M56.934 0H2.801A2.8 2.8 0 0 0 0 2.8v50.4A2.8 2.8 0 0 0 2.801 56h54.133a2.8 2.8 0 0 0 2.8-2.8V2.8a2.801 2.801 0 0 0-2.8-2.8zM10.268 2.799a.934.934 0 1 1-.001 1.867.934.934 0 0 1 .001-1.867zm-3.733 0a.933.933 0 1 1-.003 1.867.933.933 0 0 1 .003-1.867zm-3.734 0a.933.933 0 1 1 0 1.866.933.933 0 0 1 0-1.866zM57.867 53.2a.934.934 0 0 1-.934.933H2.801a.934.934 0 0 1-.934-.933V8.4c0-.516.418-.934.934-.934h54.133c.516 0 .934.418.934.934v44.8zm-.933-48.533H14A.933.933 0 0 1 14 2.8h42.934a.934.934 0 1 1 0 1.867z"/><path fill="#909AA3" d="M49.702 23.217h-39.67a1.102 1.102 0 0 1-1.101-1.101v-5.65c0-.607.493-1.101 1.101-1.101h39.67c.607 0 1.101.494 1.101 1.101v5.65c0 .607-.493 1.101-1.101 1.101zm-39.67-7.552a.803.803 0 0 0-.803.802v5.65c0 .442.359.802.803.802h39.67c.443 0 .803-.36.803-.802v-5.65a.803.803 0 0 0-.803-.802h-39.67zm39.67 22.825h-39.67a1.103 1.103 0 0 1-1.101-1.102V31.74c0-.607.493-1.102 1.101-1.102h39.67c.607 0 1.101.494 1.101 1.102v5.648c0 .608-.493 1.102-1.101 1.102zm-39.67-7.552a.803.803 0 0 0-.803.803v5.648c0 .443.359.803.803.803h39.67a.803.803 0 0 0 .803-.803V31.74a.803.803 0 0 0-.803-.803h-39.67z"/><path fill="#C8CFD6" d="M10.014 11.813h16.211a.934.934 0 0 1 0 1.868H10.014a.934.934 0 1 1 0-1.868zm0 15.104h9.497a.934.934 0 0 1 0 1.868h-9.497a.934.934 0 0 1 0-1.868z"/><path fill="#64AF80" d="M40.231 47.396a.952.952 0 0 1-.952.951H20.455a.951.951 0 0 1-.951-.951v-4.434c0-.524.426-.951.951-.951h18.824c.525 0 .952.427.952.951v4.434z"/><g opacity=".3" fill="#1D1D1B"><circle cx="29.867" cy="45.18" r=".934"/><circle cx="33.601" cy="45.18" r=".934"/><circle cx="26.134" cy="45.18" r=".934"/></g></svg>