<svg xmlns="http://www.w3.org/2000/svg" width="52.892" height="56"><path fill="#909AA3" d="M10.031 16.606c-.607 0-1.102.494-1.102 1.101v5.649c0 .607.494 1.101 1.102 1.101h28.925v-7.851H10.031zm28.626 7.552H10.031a.804.804 0 0 1-.803-.802v-5.649c0-.442.36-.802.803-.802h28.626v7.253z"/><path fill="#C8CFD6" d="M10.013 12.884h9.497a.934.934 0 1 1 0 1.868h-9.497a.934.934 0 0 1 0-1.868z"/><g fill="#858F97"><circle cx="12.763" cy="20.531" r="1.342"/><circle cx="16.684" cy="20.531" r="1.343"/><circle cx="20.604" cy="20.531" r="1.342"/></g><path fill="#C8CFD6" d="M38.807 54.133H2.8a.934.934 0 0 1-.934-.934V8.4c0-.516.418-.934.934-.934h36.007v-2.8H14A.933.933 0 1 1 14 2.8h24.807V0H2.8A2.8 2.8 0 0 0 0 2.8v50.4A2.8 2.8 0 0 0 2.8 56h36.007v-1.867zM10.267 2.799a.934.934 0 1 1 0 1.868.934.934 0 0 1 0-1.868zm-3.734 0a.934.934 0 1 1 0 1.868.934.934 0 0 1 0-1.868zm-3.733 0a.934.934 0 1 1 0 1.868.934.934 0 0 1 0-1.868z"/><g fill="#61AA7F"><path d="M49.997 29.164H23.499a2.9 2.9 0 0 0-2.896 2.896v13.248a2.9 2.9 0 0 0 2.896 2.896h23.602c0 .021.002 0 .002 0h2.894a2.898 2.898 0 0 0 2.895-2.896V32.059a2.897 2.897 0 0 0-2.895-2.895zm1.182 16.143c0 .652-.53 1.182-1.182 1.182H23.499a1.183 1.183 0 0 1-1.182-1.182V34.954h28.861v10.353zm0-12.066H22.317v-1.182c0-.652.53-1.182 1.182-1.182h26.498c.651 0 1.182.529 1.182 1.182v1.182z"/><path d="M30.633 37.317c-.497 0-.991.1-1.466.297l-.063.025-.063-.025a3.814 3.814 0 0 0-1.466-.297c-2.159 0-3.914 1.756-3.914 3.914s1.755 3.914 3.914 3.914c.497 0 .99-.1 1.467-.297l.062-.025.063.025c.476.197.969.297 1.466.297 2.159 0 3.914-1.756 3.914-3.914s-1.755-3.914-3.914-3.914zm0 6.115a2.15 2.15 0 0 1-1.097-.309l-.432-.25-.433.251a2.153 2.153 0 0 1-1.096.308c-1.214 0-2.201-.988-2.201-2.201s.987-2.201 2.201-2.201c.378 0 .747.104 1.097.309l.432.25.433-.251a2.148 2.148 0 0 1 1.096-.308c1.214 0 2.201.988 2.201 2.201s-.987 2.201-2.201 2.201z"/></g></svg>