<svg xmlns="http://www.w3.org/2000/svg" width="61.77" height="56"><g fill="#61AA7F"><path d="M58.775 28.807H31.376a2.998 2.998 0 0 0-2.994 2.994v13.701a2.999 2.999 0 0 0 2.994 2.994h24.406c0 .021.002 0 .002 0h2.993a2.998 2.998 0 0 0 2.994-2.994V31.801a3 3 0 0 0-2.996-2.994zm1.222 16.695c0 .674-.548 1.222-1.222 1.222h-27.4a1.224 1.224 0 0 1-1.223-1.222V34.795h29.845v10.707zm0-12.48H30.152V31.8c0-.674.549-1.222 1.223-1.222l27.4.001a1.222 1.222 0 0 1 1.222 1.221v1.222z"/><path d="M38.752 37.238c-.515 0-1.025.104-1.517.307l-.064.026-.063-.026a3.961 3.961 0 0 0-1.517-.307 4.052 4.052 0 0 0-4.048 4.048 4.053 4.053 0 0 0 4.048 4.048c.514 0 1.023-.104 1.517-.307l.063-.026.064.026a3.961 3.961 0 0 0 1.517.307 4.053 4.053 0 0 0 4.048-4.048 4.053 4.053 0 0 0-4.048-4.048zm0 6.324a2.23 2.23 0 0 1-1.135-.317l-.446-.26-.446.26a2.237 2.237 0 0 1-1.134.318c-1.255-.001-2.276-1.021-2.276-2.276s1.021-2.274 2.276-2.276c.391 0 .772.107 1.134.318l.446.26.447-.26c.36-.211.741-.318 1.134-.316a2.275 2.275 0 0 1 0 4.549z"/></g><path fill="#61AA7F" d="M61.507 13.375a.886.886 0 0 0-.632-.262h-6.944l.391-.301c.343-.264.691-.517 1.029-.762.304-.219.599-.433.872-.643.142-.109.28-.22.417-.333l.046-.039h4.189a.895.895 0 0 0 0-1.788h-2.477l.17-.259c.312-.479.546-.948.715-1.436.45-1.301.242-2.845-.541-4.031-1.264-1.911-3.23-2.313-4.657-2.313-1.378 0-2.854.376-4.156 1.061-.509.267-.461.712-.417.891.09.367.438.758.9.758a.926.926 0 0 0 .432-.113c1.643-.863 3.257-1.066 4.713-.587 1.182.389 2.072 1.462 2.165 2.61.093 1.14-.442 2.243-1.636 3.373l-.048.049h-8.205a.895.895 0 0 0 0 1.788h5.92l-.41.303a16.98 16.98 0 0 0-1.419 1.146 6.591 6.591 0 0 0-.548.568l-.051.059h-3.492a.896.896 0 0 0 0 1.789h2.416l-.081.225c-.73 2.029-.341 4.092 1.042 5.518.93.958 2.263 1.465 3.857 1.465 1.378 0 2.896-.37 4.273-1.041.506-.247.467-.676.428-.849-.088-.38-.446-.784-.936-.784a.947.947 0 0 0-.417.101c-1.002.488-2.233.78-3.295.78-1.681 0-2.859-.715-3.32-2.013-.417-1.178-.294-2.265.377-3.324l.05-.078h8.647a.895.895 0 0 0 .633-1.528z"/><g fill="#C8CFD6"><path d="M29.314 20.364h10.814v-1.867H29.314a.934.934 0 1 0 0 1.867zm-5.968-4.402c0 .515.418.933.934.933h15.85v-1.867H24.28a.934.934 0 0 0-.934.934zM7.296 31.564h8.49a.934.934 0 0 0 0-1.868h-8.49a.933.933 0 1 0 0 1.868z"/><path d="M40.129 54.133H2.801a.934.934 0 0 1-.934-.934V8.4c0-.515.418-.933.934-.933h37.328v-2.8H14A.933.933 0 1 1 14 2.8h26.129V0H2.801A2.8 2.8 0 0 0 0 2.8v50.399A2.8 2.8 0 0 0 2.801 56h37.328v-1.867zM10.268 2.799a.934.934 0 1 1-.001 1.867.934.934 0 0 1 .001-1.867zm-3.734 0a.934.934 0 1 1-.001 1.867.934.934 0 0 1 .001-1.867zm-3.733 0A.934.934 0 1 1 2.8 4.666a.934.934 0 0 1 0-1.866z"/><path d="M7.296 36.359h11.848a.934.934 0 0 0 0-1.868H7.296a.934.934 0 0 0 0 1.868zm0-9.591h10.84a.934.934 0 1 0 0-1.868H7.296a.933.933 0 1 0 0 1.868z"/></g><path fill="#61AA7F" d="M58.775 28.807H31.376a2.998 2.998 0 0 0-2.994 2.994v13.701a2.998 2.998 0 0 0 2.994 2.993h24.406c0 .021.002 0 .002 0h2.993a2.997 2.997 0 0 0 2.994-2.993V31.801a2.999 2.999 0 0 0-2.996-2.994zm1.222 16.695c0 .674-.548 1.221-1.222 1.221h-27.4a1.223 1.223 0 0 1-1.223-1.221V34.795h29.845v10.707zm0-12.48H30.152V31.8c0-.674.549-1.222 1.223-1.222h27.4c.674 0 1.222.548 1.222 1.222v1.222z"/><path fill="#61AA7F" d="M38.752 37.238c-.515 0-1.025.104-1.517.307l-.064.026-.063-.026a3.961 3.961 0 0 0-1.517-.307 4.052 4.052 0 0 0-4.048 4.047 4.053 4.053 0 0 0 4.048 4.049c.514 0 1.023-.104 1.517-.307l.063-.027.064.027a3.961 3.961 0 0 0 1.517.307 4.053 4.053 0 0 0 4.048-4.049 4.052 4.052 0 0 0-4.048-4.047zm0 6.324a2.23 2.23 0 0 1-1.135-.317l-.446-.26-.446.26a2.226 2.226 0 0 1-1.134.317 2.279 2.279 0 0 1-2.276-2.276 2.278 2.278 0 0 1 2.276-2.275c.392 0 .772.107 1.134.318l.446.26.447-.26a2.22 2.22 0 0 1 1.134-.318 2.277 2.277 0 0 1 2.275 2.275 2.278 2.278 0 0 1-2.275 2.276z"/></svg>