<svg xmlns="http://www.w3.org/2000/svg" width="41" height="44.741"><path fill="#0055B8" d="M1.727 1.727h20.128v9.61c0 .476.388.863.863.863h9.61v10.767h1.727v-11.93a.869.869 0 0 0-.253-.611L23.628.253a.866.866 0 0 0-.61-.253H.863A.864.864 0 0 0 0 .863v43.015c0 .477.388.863.863.863h21.352v-1.727H1.727V1.727zm21.854.921l7.825 7.825h-7.825V2.648z"/><path fill="#00B181" d="M40.996 31.019c0-.625-.376-1.047-1.008-1.129l-.388-.047a9.887 9.887 0 0 1-1.074-.162c-1.342-.295-2.639-.9-4.084-1.906-.213-.146-.433-.299-.755-.299-.327 0-.556.159-.758.301-1.925 1.328-3.656 1.998-5.447 2.109-.736.047-1.11.449-1.11 1.195v1.396c-.003 1.004-.005 2.505.01 3.944.004.478.065.982.183 1.498.272 1.191.894 2.264 1.897 3.274 1.258 1.269 2.83 2.247 4.807 2.991.12.047.262.07.408.07.178 0 .355-.035.497-.1l.347-.148c.453-.195.968-.417 1.461-.676 1.605-.849 2.821-1.852 3.716-3.064.798-1.082 1.212-2.176 1.266-3.341.01-.221.017-.456.021-.734L41 33.979l-.004-2.96zm-7.309-1.883l.179.119c1.477.988 2.894 1.623 4.332 1.941.337.072.663.117.966.153l.284.035-.018 4.79c-.003.258-.01.48-.016.68-.038.846-.353 1.661-.963 2.492-.757 1.025-1.802 1.883-3.194 2.617-.416.219-.868.414-1.307.604l-.269.116-.124-.049c-1.651-.656-2.957-1.484-3.994-2.533-.797-.807-1.283-1.636-1.486-2.534a5.46 5.46 0 0 1-.143-1.163c-.01-1.033-.01-2.081-.01-3.111l.001-1.888.282-.035c1.767-.22 3.45-.893 5.3-2.117l.18-.117z"/><path fill="#0055B8" d="M16.549 36.274H7.074a.864.864 0 0 0 0 1.726h9.475a.863.863 0 0 0 0-1.726zm10.931-12.88a.864.864 0 0 0-.863-.863H7.074a.863.863 0 0 0 0 1.726h19.543a.864.864 0 0 0 .863-.863zm-.863-5.601H7.074a.863.863 0 0 0 0 1.726h19.543a.864.864 0 0 0 0-1.726zM16.549 32.104H7.074a.864.864 0 0 0 0 1.726h9.475a.863.863 0 0 0 0-1.726z"/></svg>