<svg xmlns="http://www.w3.org/2000/svg" width="33" height="33"><circle fill="#00B181" cx="16.5" cy="16.5" r="13.533"/><path fill="#00B181" d="M16.5 33C7.401 33 0 25.598 0 16.5S7.401 0 16.5 0C25.598 0 33 7.402 33 16.5S25.598 33 16.5 33zm0-31.632C8.155 1.368 1.367 8.156 1.367 16.5S8.155 31.632 16.5 31.632c8.344 0 15.132-6.788 15.132-15.132S24.844 1.368 16.5 1.368z"/><path fill="#FFF" d="M22.434 12.689l-6.783 8.673a.914.914 0 0 1-.604.303h-.039a.797.797 0 0 1-.583-.242l-3.803-3.803a.827.827 0 0 1 0-1.167.826.826 0 0 1 1.166 0l3.16 3.159 6.219-7.989a.849.849 0 0 1 1.167-.101c.34.302.381.826.1 1.167z"/></svg>