<svg xmlns="http://www.w3.org/2000/svg" width="28" height="28"><path fill="#C3E678" d="M14 28C6.28 28 0 21.72 0 14S6.28 0 14 0c7.719 0 14 6.28 14 14s-6.281 14-14 14z"/><path fill="#A5D76E" d="M20.534 23.333c-7.72 0-14-6.281-14-14 0-3.231 1.111-6.202 2.957-8.574C3.979 2.642 0 7.859 0 14c0 7.72 6.28 14 14 14 4.489 0 8.479-2.131 11.043-5.426a13.924 13.924 0 0 1-4.509.759z"/><path fill="#FFF" d="M11.104 21.242a.967.967 0 0 1-.683-.283l-5.793-5.793A.966.966 0 0 1 5.993 13.8l5.11 5.11 9.938-9.937a.965.965 0 1 1 1.365 1.365l-10.62 10.62a.96.96 0 0 1-.682.284z"/></svg>