<svg xmlns="http://www.w3.org/2000/svg" width="33" height="33.048" fill="#fff"><path d="M26.094 20.473c-.677-.705-1.493-1.082-2.358-1.082-.857 0-1.68.37-2.385 1.074l-2.204 2.197c-.182-.098-.363-.188-.537-.279a8.821 8.821 0 0 1-.69-.369c-2.064-1.312-3.941-3.021-5.741-5.231-.871-1.102-1.457-2.03-1.883-2.971.572-.523 1.102-1.067 1.618-1.591.195-.195.391-.397.586-.593 1.465-1.464 1.465-3.362 0-4.827l-1.904-1.904c-.216-.216-.439-.439-.648-.663a32.861 32.861 0 0 0-1.313-1.297c-.677-.67-1.485-1.025-2.336-1.025-.852 0-1.675.355-2.372 1.025-.007.006-.007.006-.013.014L1.542 5.343A5.099 5.099 0 0 0 .029 8.586c-.168 2.037.432 3.934.893 5.176 1.13 3.048 2.817 5.873 5.336 8.9 3.055 3.648 6.73 6.529 10.93 8.559 1.604.76 3.745 1.66 6.138 1.812.146.008.3.015.439.015 1.611 0 2.964-.579 4.024-1.729.007-.014.021-.021.028-.035.362-.439.781-.837 1.221-1.262.3-.287.606-.586.907-.9.689-.719 1.053-1.556 1.053-2.414 0-.864-.37-1.694-1.074-2.392l-3.83-3.843zm2.497 7.343c-.007 0-.007.008 0 0-.272.293-.551.559-.852.852-.453.432-.913.886-1.346 1.395-.705.754-1.534 1.109-2.623 1.109-.104 0-.216 0-.32-.008-2.071-.132-3.997-.941-5.441-1.631-3.947-1.912-7.414-4.625-10.294-8.064-2.379-2.866-3.97-5.517-5.022-8.363-.649-1.736-.886-3.089-.781-4.366a3.197 3.197 0 0 1 .963-2.071L5.252 4.29c.342-.321.704-.496 1.061-.496.439 0 .795.265 1.019.488a34.291 34.291 0 0 1 1.275 1.271c.217.223.44.446.663.676l1.904 1.904c.739.739.739 1.422 0 2.162-.202.203-.397.404-.6.6-.586.6-1.144 1.158-1.751 1.702-.014.014-.028.021-.035.035-.6.6-.488 1.186-.362 1.583l.021.062c.496 1.2 1.193 2.33 2.253 3.676l.008.007c1.925 2.371 3.955 4.22 6.193 5.636.286.181.579.328.858.468.25.125.487.244.689.369.028.014.057.035.084.049.237.119.461.175.691.175.578 0 .941-.362 1.06-.481l2.386-2.386c.237-.237.614-.522 1.054-.522.432 0 .787.271 1.004.508l.014.015 3.844 3.843c.717.711.717 1.443.006 2.182zM17.835 7.861a8.849 8.849 0 0 1 4.812 2.497 8.888 8.888 0 0 1 2.497 4.813c.077.46.475.781.928.781.056 0 .104-.007.16-.014a.942.942 0 0 0 .774-1.088 10.754 10.754 0 0 0-3.02-5.824 10.758 10.758 0 0 0-5.824-3.02.946.946 0 0 0-1.088.767.934.934 0 0 0 .761 1.088zm15.151 6.717a17.7 17.7 0 0 0-4.974-9.591A17.706 17.706 0 0 0 18.421.014a.938.938 0 0 0-1.081.767.945.945 0 0 0 .774 1.088c3.25.551 6.215 2.092 8.572 4.443a15.795 15.795 0 0 1 4.442 8.573c.077.46.475.781.929.781.055 0 .104-.007.16-.014a.925.925 0 0 0 .769-1.074z"/></svg>