<svg fill="#fff" xmlns="http://www.w3.org/2000/svg" width="25" height="25.006"><path d="M24.783 23.73l-6.076-6.077a10.617 10.617 0 0 0 2.617-6.991C21.324 4.779 16.539 0 10.662 0 4.779 0 0 4.785 0 10.662c0 5.877 4.784 10.662 10.662 10.662 2.672 0 5.117-.987 6.991-2.617l6.077 6.077c.144.144.338.222.526.222s.383-.072.526-.222a.748.748 0 0 0 .001-1.054zM1.491 10.662c0-5.057 4.114-9.165 9.165-9.165 5.057 0 9.165 4.114 9.165 9.165 0 5.051-4.108 9.171-9.165 9.171-5.051 0-9.165-4.114-9.165-9.171z"/></svg>