<svg width="15" height="15" xmlns="http://www.w3.org/2000/svg" viewBox="0 0 373.12 373.12"><path d="M266.667 234.667h-16.853l-5.973-5.76c20.907-24.32 33.493-55.893 33.493-90.24C277.333 62.08 215.253 0 138.667 0S0 62.08 0 138.667s62.08 138.667 138.667 138.667c34.347 0 65.92-12.587 90.24-33.493l5.76 5.973v16.853L341.333 373.12l31.787-31.787-106.453-106.666zm-128 0c-53.12 0-96-42.88-96-96s42.88-96 96-96 96 42.88 96 96-42.88 96-96 96z"/><path d="M149.333 128V85.333H128V128H85.333v21.333H128V192h21.333v-42.667H192V128z"/></svg>