<?xml version="1.0" encoding="utf-8"?>
<!-- Generator: Adobe Illustrator 16.0.0, SVG Export Plug-In . SVG Version: 6.00 Build 0)  -->
<!DOCTYPE svg PUBLIC "-//W3C//DTD SVG 1.1//EN" "http://www.w3.org/Graphics/SVG/1.1/DTD/svg11.dtd">
<svg version="1.1" id="Слой_1" xmlns="http://www.w3.org/2000/svg" xmlns:xlink="http://www.w3.org/1999/xlink" x="0px" y="0px"
	 width="52px" height="50.018px" viewBox="0 0 52 50.018" enable-background="new 0 0 52 50.018" xml:space="preserve">
<g>
	<path fill="#0055B8" d="M24.666,49.824c0.925-0.019,1.686-0.695,1.813-1.608c0.024-0.174,2.587-17.515,15.141-31.798
		c0.531-0.605,0.615-1.479,0.208-2.175c-0.429-0.731-1.355-1.664-3.342-1.951c-1.453-0.331-2.839-0.162-4.296,0.495
		c-0.124,0.054-0.24,0.109-0.355,0.172c-1.418,0.715-2.713,1.802-3.964,2.852c-2.018,1.693-3.92,3.291-6.065,3.291
		c-0.097,0-0.202-0.004-0.32-0.013l-0.05-0.011c-1.067-0.373-2.914-1.892-4.397-3.112c-2.467-2.029-4.597-3.781-6.536-3.781
		c-2.965,0-5.503,1.025-5.609,1.068c-0.627,0.257-1.066,0.834-1.146,1.507c-0.031,0.262-0.008,0.521,0.07,0.771
		c0.064,0.319,0.199,0.604,0.393,0.84c4.267,5.192,4.267,5.192,7.242,9.041c2.456,3.15,5.87,4.278,9.639,3.167l0.423-0.125
		l-0.196,0.396c-2.157,4.354-3.069,8.33-2.711,11.818c0.016,0.149,0.049,0.298,0.101,0.44c1.544,4.294,2.065,7.064,2.087,7.181
		c0.161,0.891,0.933,1.536,1.836,1.536v0.193L24.666,49.824z M24.441,47.993c-0.005-0.028-0.533-2.93-2.159-7.451
		c-0.666-6.438,3.73-13.544,6.357-17.147c-2.013,1.755-5.157,3.937-8.347,3.937c-2.139,0-3.995-0.99-5.516-2.942
		c-2.992-3.869-2.992-3.869-7.273-9.08l-0.169-0.206l0.069-0.026l-0.198-0.143l0.322-0.132c0.094-0.039,2.336-0.944,4.976-0.944
		c1.34,0,3.348,1.651,5.473,3.4c1.864,1.533,3.791,3.118,5.189,3.487c0.191,0.015,0.415,0.029,0.642,0.029
		c2.754,0,4.983-1.871,7.139-3.681c1.243-1.043,2.417-2.029,3.668-2.652c0.073-0.041,0.159-0.084,0.254-0.124
		c1.148-0.521,2.228-0.645,3.316-0.377c0.743,0.095,1.749,0.376,2.202,1.148l0.07,0.12l-0.092,0.104
		C27.441,30.017,24.847,47.809,24.822,47.986l-0.167,1.205L24.441,47.993z"/>
	<path fill="#0055B8" d="M24.425,0.064c-3.988,0-7.233,3.245-7.233,7.233s3.245,7.233,7.233,7.233s7.233-3.245,7.233-7.233
		S28.413,0.064,24.425,0.064z M24.425,12.858c-3.066,0-5.561-2.494-5.561-5.561s2.495-5.561,5.561-5.561
		c3.065,0,5.561,2.494,5.561,5.561S27.49,12.858,24.425,12.858z"/>
	<path fill="#00B181" d="M48.284,8.053c1.049-1.339,2.519-1.664,3.103-1.741C51.736,6.265,52,5.964,52,5.61
		s-0.264-0.654-0.614-0.701c-0.583-0.077-2.052-0.402-3.102-1.741c-0.747-0.952-0.926-1.984-0.967-2.515
		C47.29,0.288,46.98,0,46.612,0c-0.367,0-0.677,0.288-0.705,0.653c-0.04,0.531-0.219,1.563-0.965,2.515
		c-1.05,1.339-2.52,1.664-3.104,1.741c-0.35,0.047-0.613,0.348-0.613,0.701s0.264,0.654,0.614,0.701
		c0.583,0.077,2.053,0.401,3.102,1.741c0.747,0.952,0.926,1.983,0.966,2.515c0.028,0.366,0.338,0.653,0.705,0.653
		c0.368,0,0.678-0.287,0.705-0.653C47.358,10.036,47.537,9.005,48.284,8.053z M46.724,7.835l-0.111,0.188l-0.11-0.188
		c-0.134-0.227-0.284-0.447-0.448-0.655c-0.461-0.588-1.023-1.078-1.675-1.458L44.189,5.61l0.189-0.11
		c0.652-0.381,1.216-0.872,1.677-1.459c0.161-0.207,0.312-0.427,0.446-0.656l0.11-0.188l0.111,0.188
		c0.133,0.227,0.283,0.447,0.446,0.656c0.461,0.587,1.024,1.078,1.676,1.459l0.19,0.11l-0.19,0.111
		c-0.65,0.38-1.214,0.87-1.676,1.458C47.007,7.388,46.856,7.608,46.724,7.835z"/>
	<path fill="#00B181" d="M7.058,39.368c1.05-1.339,2.52-1.663,3.103-1.741c0.35-0.046,0.614-0.348,0.614-0.7
		s-0.264-0.655-0.614-0.701c-0.583-0.077-2.052-0.401-3.103-1.741C6.312,33.532,6.133,32.5,6.092,31.97
		c-0.028-0.366-0.338-0.653-0.705-0.653c-0.368,0-0.677,0.287-0.705,0.653c-0.041,0.53-0.221,1.563-0.966,2.515
		c-1.05,1.34-2.52,1.664-3.103,1.741C0.264,36.271,0,36.574,0,36.927s0.264,0.654,0.614,0.7c0.583,0.078,2.052,0.402,3.103,1.741
		c0.745,0.952,0.925,1.984,0.966,2.515c0.028,0.367,0.338,0.654,0.705,0.654c0.368,0,0.677-0.287,0.705-0.654
		C6.133,41.353,6.312,40.32,7.058,39.368z M5.498,39.151L5.387,39.34l-0.111-0.188c-0.133-0.227-0.284-0.447-0.447-0.655
		c-0.462-0.589-1.025-1.079-1.675-1.458l-0.19-0.111l0.19-0.111c0.651-0.381,1.215-0.871,1.675-1.459
		c0.166-0.21,0.316-0.431,0.447-0.655l0.111-0.188l0.111,0.188c0.131,0.225,0.282,0.445,0.447,0.655
		c0.46,0.588,1.023,1.078,1.675,1.459l0.19,0.111l-0.19,0.111c-0.65,0.379-1.214,0.87-1.675,1.458
		C5.779,38.709,5.628,38.929,5.498,39.151z"/>
</g>
</svg>
