<?xml version="1.0" encoding="utf-8"?>
<!-- Generator: Adobe Illustrator 16.0.0, SVG Export Plug-In . SVG Version: 6.00 Build 0)  -->
<!DOCTYPE svg PUBLIC "-//W3C//DTD SVG 1.1//EN" "http://www.w3.org/Graphics/SVG/1.1/DTD/svg11.dtd">
<svg version="1.1" id="Слой_1" xmlns="http://www.w3.org/2000/svg" xmlns:xlink="http://www.w3.org/1999/xlink" x="0px" y="0px"
	 width="59.732px" height="56px" viewBox="0 0 59.732 56" enable-background="new 0 0 59.732 56" xml:space="preserve">
<g>
	<path fill="#64AF80" d="M40.23,46.418c0,0.526-0.427,0.953-0.951,0.953H20.454c-0.525,0-0.951-0.427-0.951-0.953v-4.432
		c0-0.525,0.426-0.951,0.951-0.951h18.825c0.524,0,0.951,0.426,0.951,0.951V46.418z"/>
	<path fill="#C8CFD6" d="M56.933,0H2.8C1.253,0,0,1.254,0,2.8v50.4C0,54.746,1.253,56,2.8,56h54.133c1.547,0,2.8-1.254,2.8-2.8V2.8
		C59.732,1.254,58.479,0,56.933,0z M10.267,2.799c0.515,0,0.933,0.418,0.933,0.934c0,0.515-0.418,0.933-0.933,0.933
		c-0.516,0-0.933-0.417-0.933-0.933C9.334,3.217,9.751,2.799,10.267,2.799z M6.533,2.799c0.516,0,0.933,0.418,0.933,0.934
		c0,0.515-0.417,0.933-0.933,0.933S5.601,4.248,5.601,3.733C5.601,3.217,6.018,2.799,6.533,2.799z M2.8,2.799
		c0.516,0,0.933,0.418,0.933,0.934c0,0.515-0.417,0.933-0.933,0.933c-0.515,0-0.933-0.417-0.933-0.933
		C1.867,3.217,2.285,2.799,2.8,2.799z M57.866,53.2c0,0.515-0.418,0.933-0.934,0.933H2.8c-0.516,0-0.934-0.418-0.934-0.933V8.4
		c0-0.516,0.418-0.934,0.934-0.934h54.133c0.516,0,0.934,0.418,0.934,0.934V53.2z M56.933,4.667H14
		c-0.516,0-0.934-0.418-0.934-0.933C13.066,3.218,13.484,2.8,14,2.8h42.933c0.516,0,0.934,0.418,0.934,0.934
		C57.866,4.249,57.448,4.667,56.933,4.667z"/>
	<path fill="#C8CFD6" d="M16.726,13.333h26.281c0.515,0,0.933,0.418,0.933,0.933l0,0c0,0.516-0.418,0.934-0.933,0.934H16.726
		c-0.515,0-0.933-0.418-0.933-0.934l0,0C15.793,13.75,16.211,13.333,16.726,13.333z"/>
	<path fill="#C8CFD6" d="M21.761,16.801h16.211c0.516,0,0.934,0.418,0.934,0.934l0,0c0,0.515-0.418,0.933-0.934,0.933H21.761
		c-0.516,0-0.934-0.418-0.934-0.933l0,0C20.827,17.219,21.245,16.801,21.761,16.801z"/>
	<g>
		<g opacity="0.3">
			<circle fill="#1D1D1B" cx="29.866" cy="44.202" r="0.933"/>
			<circle fill="#1D1D1B" cx="33.6" cy="44.202" r="0.933"/>
			<circle fill="#1D1D1B" cx="26.133" cy="44.202" r="0.933"/>
		</g>
	</g>
	<path fill="#C8CFD6" d="M10.013,25.081H49.72c0.517,0,0.934,0.418,0.934,0.934l0,0c0,0.515-0.417,0.933-0.934,0.933H10.013
		c-0.516,0-0.934-0.418-0.934-0.933l0,0C9.079,25.499,9.497,25.081,10.013,25.081z"/>
	<path fill="#3055B6" d="M10.013,25.081h14.934c0.516,0,0.934,0.418,0.934,0.934l0,0c0,0.516-0.418,0.933-0.934,0.933H10.013
		c-0.516,0-0.934-0.417-0.934-0.933l0,0C9.079,25.499,9.497,25.081,10.013,25.081z"/>
	<circle fill="#3055B6" cx="26.106" cy="26.005" r="2.35"/>
	<path fill="#C8CFD6" d="M10.013,33.134H49.72c0.517,0,0.934,0.418,0.934,0.934l0,0c0,0.516-0.417,0.934-0.934,0.934H10.013
		c-0.516,0-0.934-0.418-0.934-0.934l0,0C9.079,33.552,9.497,33.134,10.013,33.134z"/>
	<path fill="#3055B6" d="M10.013,33.134h23.66c0.516,0,0.934,0.418,0.934,0.934l0,0c0,0.516-0.418,0.934-0.934,0.934h-23.66
		c-0.516,0-0.934-0.418-0.934-0.934l0,0C9.079,33.552,9.497,33.134,10.013,33.134z"/>
	<circle fill="#3055B6" cx="34.279" cy="34.059" r="2.35"/>
</g>
</svg>
