<?xml version="1.0" encoding="utf-8"?>
<!-- Generator: Adobe Illustrator 16.0.0, SVG Export Plug-In . SVG Version: 6.00 Build 0)  -->
<!DOCTYPE svg PUBLIC "-//W3C//DTD SVG 1.1//EN" "http://www.w3.org/Graphics/SVG/1.1/DTD/svg11.dtd">
<svg version="1.1" id="Слой_1" xmlns="http://www.w3.org/2000/svg" xmlns:xlink="http://www.w3.org/1999/xlink" x="0px" y="0px"
	 width="52.892px" height="56px" viewBox="0 0 52.892 56" enable-background="new 0 0 52.892 56" xml:space="preserve">
<g>
	<path fill="#909AA3" d="M10.031,16.606c-0.607,0-1.102,0.494-1.102,1.101v5.649c0,0.607,0.494,1.101,1.102,1.101h28.925v-7.851
		H10.031z M38.657,24.158H10.031c-0.442,0-0.803-0.36-0.803-0.802v-5.649c0-0.442,0.36-0.802,0.803-0.802h28.626V24.158z"/>
	<path fill="#C8CFD6" d="M10.013,12.884h9.497c0.516,0,0.934,0.418,0.934,0.934l0,0c0,0.516-0.418,0.934-0.934,0.934h-9.497
		c-0.516,0-0.934-0.418-0.934-0.934l0,0C9.079,13.303,9.497,12.884,10.013,12.884z"/>
	<g>
		<circle fill="#858F97" cx="12.763" cy="20.531" r="1.342"/>
		<circle fill="#858F97" cx="16.684" cy="20.531" r="1.343"/>
		<circle fill="#858F97" cx="20.604" cy="20.531" r="1.342"/>
	</g>
	<path fill="#C8CFD6" d="M38.807,54.133H2.8c-0.516,0-0.934-0.418-0.934-0.934V8.4c0-0.516,0.418-0.934,0.934-0.934h36.007v-2.8H14
		c-0.516,0-0.934-0.417-0.934-0.933S13.484,2.8,14,2.8h24.807V0H2.8C1.253,0,0,1.253,0,2.8v50.4C0,54.747,1.253,56,2.8,56h36.007
		V54.133z M10.267,2.799c0.516,0,0.934,0.418,0.934,0.934c0,0.515-0.418,0.933-0.934,0.933S9.334,4.248,9.334,3.733
		C9.334,3.217,9.751,2.799,10.267,2.799z M6.533,2.799c0.516,0,0.934,0.418,0.934,0.934c0,0.515-0.418,0.933-0.934,0.933
		S5.601,4.248,5.601,3.733C5.601,3.217,6.018,2.799,6.533,2.799z M2.8,2.799c0.516,0,0.934,0.418,0.934,0.934
		c0,0.515-0.418,0.933-0.934,0.933c-0.515,0-0.933-0.418-0.933-0.933C1.867,3.217,2.285,2.799,2.8,2.799z"/>
	<g>
		<path fill="#61AA7F" d="M49.997,29.164h-5.258h-1.714h-2.363h-1.714h-2.362h-1.714h-2.363h-1.714h-2.362h-1.714h-3.22
			c-1.596,0-2.896,1.299-2.896,2.896v13.248c0,1.597,1.3,2.896,2.896,2.896H25.7h1.714h15.155h4.532c0,0.021,0.002,0,0.002,0h1.712
			h1.182c1.597,0,2.895-1.299,2.895-2.896V32.059C52.892,30.462,51.594,29.164,49.997,29.164z M51.179,45.307
			c0,0.652-0.53,1.182-1.182,1.182h-1.182h-7.697H23.499c-0.651,0-1.182-0.529-1.182-1.182V34.954h28.861V45.307z M51.179,33.241
			H22.317v-1.182c0-0.652,0.53-1.182,1.182-1.182h26.498c0.651,0,1.182,0.529,1.182,1.182V33.241z"/>
		<path fill="#61AA7F" d="M30.633,37.317c-0.497,0-0.991,0.1-1.466,0.297l-0.063,0.025l-0.063-0.025
			c-0.475-0.197-0.969-0.297-1.466-0.297c-2.159,0-3.914,1.756-3.914,3.914s1.755,3.914,3.914,3.914c0.497,0,0.99-0.1,1.467-0.297
			l0.062-0.025l0.063,0.025c0.476,0.197,0.969,0.297,1.466,0.297c2.159,0,3.914-1.756,3.914-3.914S32.792,37.317,30.633,37.317z
			 M30.633,43.432c-0.378,0-0.747-0.104-1.097-0.309l-0.432-0.25l-0.433,0.251c-0.349,0.204-0.718,0.308-1.096,0.308
			c-1.214,0-2.201-0.988-2.201-2.201s0.987-2.201,2.201-2.201c0.378,0,0.747,0.104,1.097,0.309l0.432,0.25l0.433-0.251
			c0.348-0.204,0.717-0.308,1.096-0.308c1.214,0,2.201,0.988,2.201,2.201S31.847,43.432,30.633,43.432z"/>
	</g>
</g>
</svg>
