<?xml version="1.0" encoding="utf-8"?>
<!-- Generator: Adobe Illustrator 16.0.0, SVG Export Plug-In . SVG Version: 6.00 Build 0)  -->
<!DOCTYPE svg PUBLIC "-//W3C//DTD SVG 1.1//EN" "http://www.w3.org/Graphics/SVG/1.1/DTD/svg11.dtd">
<svg version="1.1" id="Слой_1" xmlns="http://www.w3.org/2000/svg" xmlns:xlink="http://www.w3.org/1999/xlink" x="0px" y="0px"
	 width="59.733px" height="56px" viewBox="0 0 59.733 56" enable-background="new 0 0 59.733 56" xml:space="preserve">
<g>
	<path fill="#C8CFD6" d="M56.934,0H2.801C1.254,0,0,1.254,0,2.8v50.4C0,54.746,1.254,56,2.801,56h54.133c1.547,0,2.8-1.254,2.8-2.8
		V2.8C59.733,1.254,58.48,0,56.934,0z M10.268,2.799c0.515,0,0.933,0.418,0.933,0.934c0,0.515-0.418,0.933-0.933,0.933
		c-0.516,0-0.933-0.418-0.933-0.933C9.335,3.217,9.752,2.799,10.268,2.799z M6.535,2.799c0.514,0,0.932,0.418,0.932,0.934
		c0,0.515-0.418,0.933-0.932,0.933c-0.517,0-0.934-0.418-0.934-0.933C5.602,3.217,6.019,2.799,6.535,2.799z M2.801,2.799
		c0.516,0,0.933,0.418,0.933,0.934c0,0.515-0.417,0.933-0.933,0.933c-0.515,0-0.933-0.418-0.933-0.933
		C1.868,3.217,2.286,2.799,2.801,2.799z M57.867,53.2c0,0.515-0.418,0.933-0.934,0.933H2.801c-0.516,0-0.934-0.418-0.934-0.933V8.4
		c0-0.516,0.418-0.934,0.934-0.934h54.133c0.516,0,0.934,0.418,0.934,0.934V53.2z M56.934,4.667H14
		c-0.515,0-0.933-0.418-0.933-0.933C13.067,3.218,13.485,2.8,14,2.8h42.934c0.516,0,0.934,0.418,0.934,0.934
		C57.867,4.249,57.449,4.667,56.934,4.667z"/>
	<g>
		<path fill="#909AA3" d="M49.702,23.217h-39.67c-0.607,0-1.101-0.494-1.101-1.101v-5.65c0-0.607,0.493-1.101,1.101-1.101h39.67
			c0.607,0,1.101,0.494,1.101,1.101v5.65C50.803,22.723,50.31,23.217,49.702,23.217z M10.032,15.665
			c-0.443,0-0.803,0.359-0.803,0.802v5.65c0,0.442,0.359,0.802,0.803,0.802h39.67c0.443,0,0.803-0.36,0.803-0.802v-5.65
			c0-0.442-0.359-0.802-0.803-0.802H10.032z"/>
	</g>
	<g>
		<path fill="#909AA3" d="M49.702,38.49h-39.67c-0.607,0-1.101-0.494-1.101-1.102V31.74c0-0.607,0.493-1.102,1.101-1.102h39.67
			c0.607,0,1.101,0.494,1.101,1.102v5.648C50.803,37.996,50.31,38.49,49.702,38.49z M10.032,30.938
			c-0.443,0-0.803,0.359-0.803,0.803v5.648c0,0.443,0.359,0.803,0.803,0.803h39.67c0.443,0,0.803-0.359,0.803-0.803V31.74
			c0-0.443-0.359-0.803-0.803-0.803H10.032z"/>
	</g>
	<g>
		<path fill="#C8CFD6" d="M10.014,11.813h16.211c0.516,0,0.934,0.418,0.934,0.934l0,0c0,0.515-0.418,0.934-0.934,0.934H10.014
			c-0.516,0-0.934-0.418-0.934-0.934l0,0C9.08,12.231,9.498,11.813,10.014,11.813z"/>
	</g>
	<g>
		<path fill="#C8CFD6" d="M10.014,26.917h9.497c0.516,0,0.934,0.418,0.934,0.934l0,0c0,0.515-0.418,0.934-0.934,0.934h-9.497
			c-0.516,0-0.934-0.419-0.934-0.934l0,0C9.08,27.336,9.498,26.917,10.014,26.917z"/>
	</g>
	<g>
		<path fill="#64AF80" d="M40.231,47.396c0,0.525-0.427,0.951-0.952,0.951H20.455c-0.525,0-0.951-0.426-0.951-0.951v-4.434
			c0-0.524,0.426-0.951,0.951-0.951h18.824c0.525,0,0.952,0.427,0.952,0.951V47.396z"/>
		<g>
			<g opacity="0.3">
				<circle fill="#1D1D1B" cx="29.867" cy="45.18" r="0.934"/>
				<circle fill="#1D1D1B" cx="33.601" cy="45.18" r="0.934"/>
				<circle fill="#1D1D1B" cx="26.134" cy="45.18" r="0.934"/>
			</g>
		</g>
	</g>
</g>
</svg>
