<?xml version="1.0" encoding="utf-8"?>
<!-- Generator: Adobe Illustrator 16.0.0, SVG Export Plug-In . SVG Version: 6.00 Build 0)  -->
<!DOCTYPE svg PUBLIC "-//W3C//DTD SVG 1.1//EN" "http://www.w3.org/Graphics/SVG/1.1/DTD/svg11.dtd">
<svg version="1.1" id="Слой_1" xmlns="http://www.w3.org/2000/svg" xmlns:xlink="http://www.w3.org/1999/xlink" x="0px" y="0px"
	 width="61.77px" height="56px" viewBox="0 0 61.77 56" enable-background="new 0 0 61.77 56" xml:space="preserve">
<g>
	<g>
		<path fill="#61AA7F" d="M58.775,28.807h-5.438h-1.771l-2.443,0l-1.772,0h-2.443l-1.772,0l-2.443,0H38.92h-2.443h-1.772h-3.329
			c-1.65,0-2.994,1.343-2.994,2.994v13.701c0,1.65,1.344,2.994,2.994,2.994h2.275h1.772h15.672h4.687c0,0.021,0.002,0,0.002,0h1.771
			h1.222c1.651,0,2.994-1.344,2.994-2.994V31.801C61.77,30.15,60.427,28.808,58.775,28.807z M59.997,45.502
			c0,0.674-0.548,1.222-1.222,1.222h-1.222h-7.96H31.375c-0.674,0-1.223-0.548-1.223-1.222V34.795h29.845V45.502z M59.997,33.022
			H30.152v-1.222c0-0.674,0.549-1.222,1.223-1.222l27.4,0.001c0.674-0.001,1.222,0.547,1.222,1.221V33.022z"/>
		<path fill="#61AA7F" d="M38.752,37.238c-0.515,0-1.025,0.104-1.517,0.307l-0.064,0.026l-0.063-0.026
			c-0.492-0.203-1.002-0.307-1.517-0.307c-2.232,0-4.048,1.815-4.048,4.048c0,2.231,1.815,4.048,4.048,4.048
			c0.514,0,1.023-0.104,1.517-0.307l0.063-0.026l0.064,0.026c0.492,0.203,1.002,0.307,1.517,0.307c2.231,0,4.048-1.816,4.048-4.048
			C42.8,39.054,40.984,37.238,38.752,37.238z M38.752,43.562c-0.392,0-0.773-0.106-1.135-0.317l-0.446-0.26l-0.446,0.26
			c-0.361,0.211-0.743,0.317-1.134,0.318c-1.255-0.001-2.276-1.021-2.276-2.276s1.021-2.274,2.276-2.276
			c0.391,0,0.772,0.107,1.134,0.318l0.446,0.26l0.447-0.26c0.36-0.211,0.741-0.318,1.134-0.316c1.255-0.002,2.275,1.02,2.275,2.273
			C41.027,42.541,40.007,43.562,38.752,43.562z"/>
	</g>
	<path fill="#61AA7F" d="M61.507,13.375c-0.168-0.169-0.393-0.262-0.632-0.262h-6.944l0.391-0.301
		c0.343-0.264,0.691-0.517,1.029-0.762c0.304-0.219,0.599-0.433,0.872-0.643c0.142-0.109,0.28-0.22,0.417-0.333l0.046-0.039h4.189
		c0.493,0,0.895-0.4,0.895-0.894c0-0.493-0.401-0.894-0.895-0.894h-2.477l0.17-0.259c0.312-0.479,0.546-0.948,0.715-1.436
		c0.45-1.301,0.242-2.845-0.541-4.031c-1.264-1.911-3.23-2.313-4.657-2.313c-1.378,0-2.854,0.376-4.156,1.061
		c-0.509,0.267-0.461,0.712-0.417,0.891c0.09,0.367,0.438,0.758,0.9,0.758c0.144,0,0.289-0.038,0.432-0.113
		c1.643-0.863,3.257-1.066,4.713-0.587c1.182,0.389,2.072,1.462,2.165,2.61c0.093,1.14-0.442,2.243-1.636,3.373L56.038,9.25h-8.205
		c-0.492,0-0.894,0.401-0.894,0.894c0,0.493,0.401,0.894,0.894,0.894h5.92l-0.41,0.303c-0.431,0.318-0.937,0.703-1.419,1.146
		c-0.188,0.171-0.371,0.363-0.548,0.568l-0.051,0.059h-3.492c-0.492,0-0.894,0.401-0.894,0.894c0,0.493,0.401,0.895,0.894,0.895
		h2.416l-0.081,0.225c-0.73,2.029-0.341,4.092,1.042,5.518c0.93,0.958,2.263,1.465,3.857,1.465c1.378,0,2.896-0.37,4.273-1.041
		c0.506-0.247,0.467-0.676,0.428-0.849c-0.088-0.38-0.446-0.784-0.936-0.784c-0.14,0-0.279,0.034-0.417,0.101
		c-1.002,0.488-2.233,0.78-3.295,0.78c-1.681,0-2.859-0.715-3.32-2.013c-0.417-1.178-0.294-2.265,0.377-3.324l0.05-0.078h8.647
		c0.493,0,0.894-0.401,0.894-0.894C61.769,13.769,61.676,13.544,61.507,13.375z"/>
	<g>
		<path fill="#C8CFD6" d="M29.314,20.364h10.814v-1.867H29.314c-0.516,0-0.934,0.418-0.934,0.934
			C28.381,19.946,28.799,20.364,29.314,20.364z"/>
		<path fill="#C8CFD6" d="M23.346,15.962c0,0.515,0.418,0.933,0.934,0.933h15.85v-1.867h-15.85
			C23.764,15.028,23.346,15.446,23.346,15.962z"/>
		<path fill="#C8CFD6" d="M7.296,31.564h8.49c0.516,0,0.934-0.419,0.934-0.934c0-0.516-0.418-0.934-0.934-0.934h-8.49
			c-0.516,0-0.933,0.418-0.933,0.934C6.363,31.146,6.78,31.564,7.296,31.564z"/>
		<path fill="#C8CFD6" d="M40.129,54.133H2.801c-0.516,0-0.934-0.418-0.934-0.934V8.4c0-0.515,0.418-0.933,0.934-0.933h37.328v-2.8
			H14c-0.516,0-0.933-0.418-0.933-0.933C13.067,3.218,13.484,2.8,14,2.8h26.129V0H2.801C1.254,0,0,1.253,0,2.8v50.399
			C0,54.746,1.254,56,2.801,56h37.328V54.133z M10.268,2.799c0.515,0,0.933,0.418,0.933,0.934c0,0.515-0.418,0.933-0.933,0.933
			c-0.516,0-0.934-0.418-0.934-0.933C9.334,3.217,9.752,2.799,10.268,2.799z M6.534,2.799c0.515,0,0.933,0.418,0.933,0.934
			c0,0.515-0.418,0.933-0.933,0.933c-0.516,0-0.934-0.418-0.934-0.933C5.601,3.217,6.019,2.799,6.534,2.799z M2.801,2.799
			c0.515,0,0.933,0.418,0.933,0.934c0,0.515-0.418,0.933-0.933,0.933c-0.516,0-0.934-0.418-0.934-0.933
			C1.867,3.217,2.285,2.799,2.801,2.799z"/>
		<path fill="#C8CFD6" d="M7.296,36.359h11.848c0.515,0,0.933-0.418,0.933-0.934c0-0.515-0.418-0.934-0.933-0.934H7.296
			c-0.516,0-0.933,0.419-0.933,0.934C6.363,35.941,6.78,36.359,7.296,36.359z"/>
		<path fill="#C8CFD6" d="M7.296,26.768h10.84c0.516,0,0.934-0.418,0.934-0.934S18.651,24.9,18.136,24.9H7.296
			c-0.516,0-0.933,0.418-0.933,0.934S6.78,26.768,7.296,26.768z"/>
	</g>
	<path fill="#61AA7F" d="M58.775,28.807h-5.438h-1.771h-2.443h-1.772h-2.443h-1.772h-2.443H38.92h-2.443h-1.772h-3.329
		c-1.65,0-2.994,1.343-2.994,2.994v13.701c0,1.65,1.344,2.993,2.994,2.993h2.275h1.772h15.672h4.687c0,0.021,0.002,0,0.002,0h1.771
		h1.222c1.651,0,2.994-1.343,2.994-2.993V31.801C61.77,30.15,60.427,28.807,58.775,28.807z M59.997,45.502
		c0,0.674-0.548,1.221-1.222,1.221h-1.222h-7.96H31.375c-0.674,0-1.223-0.547-1.223-1.221V34.795h29.845V45.502z M59.997,33.022
		H30.152v-1.222c0-0.674,0.549-1.222,1.223-1.222h27.4c0.674,0,1.222,0.548,1.222,1.222V33.022z"/>
	<path fill="#61AA7F" d="M38.752,37.238c-0.515,0-1.025,0.104-1.517,0.307l-0.064,0.026l-0.063-0.026
		c-0.492-0.203-1.002-0.307-1.517-0.307c-2.232,0-4.048,1.815-4.048,4.047c0,2.232,1.815,4.049,4.048,4.049
		c0.514,0,1.023-0.104,1.517-0.307L37.171,45l0.064,0.027c0.492,0.203,1.002,0.307,1.517,0.307c2.232,0,4.048-1.816,4.048-4.049
		C42.8,39.054,40.984,37.238,38.752,37.238z M38.752,43.562c-0.392,0-0.773-0.106-1.135-0.317l-0.446-0.26l-0.446,0.26
		c-0.361,0.211-0.743,0.317-1.134,0.317c-1.255,0-2.276-1.021-2.276-2.276c0-1.254,1.021-2.275,2.276-2.275
		c0.392,0,0.772,0.107,1.134,0.318l0.446,0.26l0.447-0.26c0.36-0.211,0.741-0.318,1.134-0.318c1.255,0,2.275,1.021,2.275,2.275
		C41.027,42.541,40.007,43.562,38.752,43.562z"/>
</g>
</svg>
