<?xml version="1.0" encoding="utf-8"?>
<!-- Generator: Adobe Illustrator 16.0.0, SVG Export Plug-In . SVG Version: 6.00 Build 0)  -->
<!DOCTYPE svg PUBLIC "-//W3C//DTD SVG 1.1//EN" "http://www.w3.org/Graphics/SVG/1.1/DTD/svg11.dtd">
<svg version="1.1" id="Слой_1" xmlns="http://www.w3.org/2000/svg" xmlns:xlink="http://www.w3.org/1999/xlink" x="0px" y="0px"
	 width="60px" height="60px" viewBox="0 0 60 60" enable-background="new 0 0 60 60" xml:space="preserve">
<g>
	<circle fill="#FFFFFF" cx="30" cy="30" r="30"/>
	<g>
		<path fill="#4880C8" d="M34.852,30.412l-6.792,6.795c-0.117,0.115-0.256,0.172-0.412,0.172c-0.16,0-0.296-0.057-0.411-0.172
			l-1.521-1.52c-0.116-0.118-0.174-0.254-0.174-0.412s0.058-0.297,0.174-0.414L30.576,30l-4.861-4.861
			c-0.116-0.115-0.174-0.253-0.174-0.412s0.058-0.294,0.174-0.412l1.521-1.519c0.115-0.115,0.251-0.175,0.411-0.175
			c0.156,0,0.295,0.06,0.412,0.175l6.792,6.792c0.115,0.117,0.175,0.255,0.175,0.412C35.026,30.161,34.967,30.296,34.852,30.412z"/>
	</g>
</g>
</svg>
