<?xml version="1.0" encoding="utf-8"?>
<!-- Generator: Adobe Illustrator 16.0.0, SVG Export Plug-In . SVG Version: 6.00 Build 0)  -->
<!DOCTYPE svg PUBLIC "-//W3C//DTD SVG 1.1//EN" "http://www.w3.org/Graphics/SVG/1.1/DTD/svg11.dtd">
<svg version="1.1" id="Слой_1" xmlns="http://www.w3.org/2000/svg" xmlns:xlink="http://www.w3.org/1999/xlink" x="0px" y="0px"
	 width="60px" height="60px" viewBox="0 0 60 60" enable-background="new 0 0 60 60" xml:space="preserve">
<g>
	<circle fill="#FFFFFF" cx="30" cy="30" r="30"/>
	<g>
		<path fill="#4880C8" d="M24.974,30c0-0.156,0.06-0.294,0.175-0.412l6.792-6.792c0.117-0.115,0.256-0.175,0.412-0.175
			c0.16,0,0.296,0.06,0.411,0.175l1.521,1.519c0.116,0.118,0.174,0.253,0.174,0.412s-0.058,0.296-0.174,0.412L29.424,30l4.861,4.861
			c0.116,0.117,0.174,0.255,0.174,0.414c0,0.158-0.058,0.294-0.174,0.412l-1.521,1.52c-0.115,0.115-0.251,0.173-0.411,0.173
			c-0.156,0-0.295-0.058-0.412-0.173l-6.792-6.794C25.033,30.296,24.974,30.161,24.974,30z"/>
	</g>
</g>
</svg>
