<?xml version="1.0" encoding="utf-8"?>
<!-- Generator: Adobe Illustrator 16.0.0, SVG Export Plug-In . SVG Version: 6.00 Build 0)  -->
<!DOCTYPE svg PUBLIC "-//W3C//DTD SVG 1.1//EN" "http://www.w3.org/Graphics/SVG/1.1/DTD/svg11.dtd">
<svg version="1.1" id="Слой_1" xmlns="http://www.w3.org/2000/svg" xmlns:xlink="http://www.w3.org/1999/xlink" x="0px" y="0px"
	 width="41px" height="44.741px" viewBox="0 0 41 44.741" enable-background="new 0 0 41 44.741" xml:space="preserve">
<g>
	<path fill="#0055B8" d="M1.727,1.727h20.128v9.61c0,0.476,0.388,0.863,0.863,0.863h9.61v10.767h1.727v-11.93
		c0-0.228-0.092-0.45-0.253-0.611L23.628,0.253C23.468,0.092,23.245,0,23.018,0H0.863C0.388,0,0,0.387,0,0.863v43.015
		c0,0.477,0.388,0.863,0.863,0.863h21.352v-1.727H1.727V1.727z M23.581,2.648l7.825,7.825h-7.825V2.648z"/>
	<path fill="#00B181" d="M40.996,31.019c0-0.625-0.376-1.047-1.008-1.129l-0.388-0.047c-0.406-0.046-0.742-0.087-1.074-0.162
		c-1.342-0.295-2.639-0.9-4.084-1.906c-0.213-0.146-0.433-0.299-0.755-0.299c-0.327,0-0.556,0.159-0.758,0.301
		c-1.925,1.328-3.656,1.998-5.447,2.109c-0.736,0.047-1.11,0.449-1.11,1.195v1.396c-0.003,1.004-0.005,2.505,0.01,3.944
		c0.004,0.478,0.065,0.982,0.183,1.498c0.272,1.191,0.894,2.264,1.897,3.274c1.258,1.269,2.83,2.247,4.807,2.991
		c0.12,0.047,0.262,0.07,0.408,0.07c0.178,0,0.355-0.035,0.497-0.1l0.347-0.148c0.453-0.195,0.968-0.417,1.461-0.676
		c1.605-0.849,2.821-1.852,3.716-3.064c0.798-1.082,1.212-2.176,1.266-3.341c0.01-0.221,0.017-0.456,0.021-0.734L41,33.979
		L40.996,31.019z M33.687,29.136l0.179,0.119c1.477,0.988,2.894,1.623,4.332,1.941c0.337,0.072,0.663,0.117,0.966,0.153l0.284,0.035
		l-0.018,4.79c-0.003,0.258-0.01,0.48-0.016,0.68c-0.038,0.846-0.353,1.661-0.963,2.492c-0.757,1.025-1.802,1.883-3.194,2.617
		c-0.416,0.219-0.868,0.414-1.307,0.604l-0.269,0.116l-0.124-0.049c-1.651-0.656-2.957-1.484-3.994-2.533
		c-0.797-0.807-1.283-1.636-1.486-2.534c-0.091-0.396-0.139-0.786-0.143-1.163c-0.01-1.033-0.01-2.081-0.01-3.111l0.001-1.888
		l0.282-0.035c1.767-0.22,3.45-0.893,5.3-2.117L33.687,29.136z"/>
	<path fill="#0055B8" d="M16.549,36.274H7.074c-0.476,0-0.862,0.389-0.862,0.863c0,0.477,0.387,0.863,0.862,0.863h9.475
		c0.476,0,0.862-0.387,0.862-0.863C17.411,36.663,17.024,36.274,16.549,36.274z"/>
	<path fill="#0055B8" d="M27.48,23.394c0-0.476-0.388-0.863-0.863-0.863H7.074c-0.476,0-0.862,0.387-0.862,0.863
		c0,0.477,0.387,0.863,0.862,0.863h19.543C27.093,24.257,27.48,23.87,27.48,23.394z"/>
	<path fill="#0055B8" d="M26.617,17.793H7.074c-0.476,0-0.862,0.387-0.862,0.863s0.387,0.863,0.862,0.863h19.543
		c0.476,0,0.863-0.387,0.863-0.863S27.093,17.793,26.617,17.793z"/>
	<path fill="#0055B8" d="M16.549,32.104H7.074c-0.476,0-0.862,0.389-0.862,0.863c0,0.477,0.387,0.863,0.862,0.863h9.475
		c0.476,0,0.862-0.387,0.862-0.863C17.411,32.493,17.024,32.104,16.549,32.104z"/>
</g>
</svg>
