<?xml version="1.0" encoding="utf-8"?>
<!-- Generator: Adobe Illustrator 16.0.0, SVG Export Plug-In . SVG Version: 6.00 Build 0)  -->
<!DOCTYPE svg PUBLIC "-//W3C//DTD SVG 1.1//EN" "http://www.w3.org/Graphics/SVG/1.1/DTD/svg11.dtd">
<svg version="1.1" id="Слой_1" xmlns="http://www.w3.org/2000/svg" xmlns:xlink="http://www.w3.org/1999/xlink" x="0px" y="0px"
	 width="45px" height="45px" viewBox="0 0 45 45" enable-background="new 0 0 45 45" xml:space="preserve">
<g>
	<circle fill="#FFFFFF" cx="22.5" cy="22.5" r="22.5"/>
	<g>
		<path fill="#4281CA" d="M22.191,25.926l-5.096-5.094c-0.087-0.088-0.13-0.191-0.13-0.309c0-0.121,0.043-0.223,0.13-0.309
			l1.14-1.141c0.088-0.086,0.189-0.13,0.309-0.13s0.223,0.043,0.311,0.13l3.646,3.646l3.646-3.646c0.087-0.086,0.19-0.13,0.309-0.13
			c0.119,0,0.222,0.043,0.31,0.13l1.139,1.141c0.087,0.086,0.132,0.188,0.132,0.309c0,0.117-0.045,0.221-0.132,0.309l-5.094,5.094
			c-0.088,0.086-0.191,0.131-0.309,0.131C22.38,26.057,22.277,26.012,22.191,25.926z"/>
	</g>
</g>
</svg>
