<svg xmlns="http://www.w3.org/2000/svg" width="30" height="29.985"><circle opacity=".2" fill="#00B181" cx="15" cy="14.992" r="11.362"/><path fill="#0055B8" d="M28.803 9.153c-1.582-3.688-4.27-6.37-7.988-7.955C18.957.405 17.01 0 14.976 0s-3.967.401-5.822 1.198C5.466 2.779 2.766 5.46 1.182 9.153A14.597 14.597 0 0 0 0 14.976c0 2.035.388 3.988 1.182 5.839 1.584 3.693 4.284 6.391 7.972 7.973a14.61 14.61 0 0 0 5.822 1.197c2.033 0 3.981-.406 5.839-1.197 3.719-1.586 6.406-4.285 7.988-7.973A14.66 14.66 0 0 0 30 14.976c0-2.034-.4-3.966-1.197-5.823zm-2.395 12.449c-1.177 2.02-2.791 3.621-4.822 4.807-2.02 1.178-4.231 1.771-6.61 1.771-1.787 0-3.493-.346-5.117-1.051s-3.026-1.631-4.199-2.805c-1.173-1.172-2.106-2.588-2.805-4.215a12.915 12.915 0 0 1-1.033-5.134c0-2.378.585-4.579 1.755-6.594C4.751 6.36 6.365 4.758 8.383 3.576c2.017-1.181 4.215-1.771 6.593-1.771 2.379 0 4.591.594 6.609 1.771a13.2 13.2 0 0 1 4.823 4.806c1.181 2.018 1.771 4.216 1.771 6.594.001 2.378-.586 4.595-1.771 6.626z"/><path fill="#00B181" d="M15.927 14.845V6.348c0-.508-.442-.918-.951-.918a.924.924 0 0 0-.902.918v8.628c0 .017.033.082.033.132a.856.856 0 0 0 .246.738l4.904 4.905c.328.328.936.328 1.263 0a.886.886 0 0 0 0-1.281l-4.593-4.625z"/></svg>