<svg xmlns="http://www.w3.org/2000/svg" width="23.999" height="22.979"><path d="M12 0c.868 0 1.579.71 1.579 1.579v5.87c0 .869-.711 1.579-1.579 1.579s-1.579-.71-1.579-1.579v-5.87C10.421.71 11.132 0 12 0zM.077 8.663a1.584 1.584 0 0 1 1.989-1.015l5.583 1.814a1.584 1.584 0 0 1 1.013 1.99 1.584 1.584 0 0 1-1.989 1.014l-5.582-1.814A1.584 1.584 0 0 1 .077 8.663zm4.554 14.016a1.585 1.585 0 0 1-.35-2.205l3.451-4.749a1.584 1.584 0 0 1 2.205-.35c.703.511.859 1.503.35 2.206l-3.45 4.748a1.583 1.583 0 0 1-2.206.35zm14.738 0a1.581 1.581 0 0 1-2.205-.35l-3.451-4.749a1.583 1.583 0 0 1 .35-2.205 1.582 1.582 0 0 1 2.205.35l3.451 4.749c.51.702.353 1.694-.35 2.205zm4.554-14.017a1.585 1.585 0 0 1-1.014 1.99l-5.582 1.814a1.584 1.584 0 0 1-1.99-1.014 1.584 1.584 0 0 1 1.014-1.99l5.583-1.814a1.584 1.584 0 0 1 1.989 1.014z" fill-rule="evenodd" clip-rule="evenodd"/></svg>