<svg xmlns="http://www.w3.org/2000/svg" width="22" height="22"><path d="M.004 11.283C1.5 8.889 3.796 6.909 6.81 5.716a2.43 2.43 0 0 1 2.42-2.597 2.43 2.43 0 0 1 2.426 2.433 2.423 2.423 0 1 1-4.335 1.5C3.996 9.571 2.047 13.32 1.936 17.233a11.047 11.047 0 0 0 1.812 2.037c2.11-4.601 6.367-7.807 10.703-9.071v-.012a2.43 2.43 0 0 1 2.426-2.433h-.001a2.43 2.43 0 0 1 2.426 2.433 2.43 2.43 0 0 1-2.426 2.433 2.426 2.426 0 0 1-1.837-.85c-3.068 1.227-6.597 4.891-7.399 9.707C8.698 21.816 9.827 22 11 22c6.075 0 11-4.925 11-11S17.075 0 11 0 0 4.925 0 11"/></svg>