<svg xmlns="http://www.w3.org/2000/svg" width="22" height="21.24"><path d="M9.013.175c1.931-.318 3.983-.233 5.812.515-.416.037-.83.09-1.246.123-3.692.375-7.116 2.998-8.225 6.573-.271.8-.294 1.649-.404 2.478.093.999.235 2.019.69 2.927.677 1.369 1.86 2.52 3.312 3.034 1.312.501 2.818.492 4.11-.067 1.804-.732 3.158-2.48 3.379-4.418.12-1.351-.075-2.803-.905-3.915-.811-1.245-2.253-1.869-3.635-2.25-.088-.966.234-1.928.795-2.707A4.687 4.687 0 0 1 15.18.819c3.674 1.328 6.438 4.897 6.794 8.792.024 1.024.087 2.067-.151 3.073-.468 2.396-1.832 4.582-3.722 6.117a11.13 11.13 0 0 1-5.742 2.406c-.94.047-1.882.04-2.822-.004-1.973-.297-3.895-1.064-5.465-2.31-2.609-2.034-4.177-5.325-4.066-8.637a10.67 10.67 0 0 1 2.155-5.924C3.825 2.16 6.319.656 9.013.175z"/></svg>