<svg xmlns="http://www.w3.org/2000/svg" width="19" height="25.502"><path opacity=".2" fill="#00B181" d="M17.02 4.877h-2.032c-.477 0-.865-.434-.865-.966V2.082C14.123.934 13.234 0 12.143 0H1.98C.889 0 0 .934 0 2.082V23.42c0 1.148.889 2.082 1.98 2.082h15.04c1.092 0 1.98-.934 1.98-2.082V6.959c0-1.147-.889-2.082-1.98-2.082z"/><g fill="#0054BB"><path d="M15.19 13.006H3.81a.558.558 0 0 0 0 1.116h11.38a.558.558 0 0 0 0-1.116zm0 3.252H3.81a.558.558 0 0 0 0 1.116h11.38a.558.558 0 0 0 0-1.116zM3.81 20.625h11.38a.558.558 0 0 0 0-1.116H3.81a.558.558 0 0 0 0 1.116zm6.502-14.122H3.81a.558.558 0 0 0 0 1.116h6.503a.558.558 0 1 0-.001-1.116z"/><path d="M19 6.959c0-1.147-.889-2.082-1.98-2.082h-2.032c-.477 0-.865-.434-.865-.966V2.082C14.123.934 13.234 0 12.143 0H1.98C.889 0 0 .934 0 2.082V23.42c0 1.148.889 2.082 1.98 2.082h15.04c1.092 0 1.98-.934 1.98-2.082V6.959zM17.884 23.42c0 .533-.388.967-.864.967H1.98c-.477 0-.864-.434-.864-.967V2.082c0-.533.388-.966.864-.966h10.161c.477 0 .865.433.865.966v1.829c0 1.147.889 2.082 1.98 2.082h2.032c.477 0 .864.433.864.966V23.42z"/><path d="M15.19 9.755H3.81a.558.558 0 0 0 0 1.116h11.38a.558.558 0 0 0 0-1.116z"/></g></svg>