<svg xmlns="http://www.w3.org/2000/svg" width="19" height="26.956"><path opacity=".2" fill="#00B181" d="M18.464 0H.536A.536.536 0 0 0 0 .537v25.882c0 .297.24.537.536.537h17.928c.295 0 .535-.24.535-.537V.537A.536.536 0 0 0 18.464 0z"/><g fill="#0054BB"><path d="M18.464 0H.536A.536.536 0 0 0 0 .537v25.882c0 .297.24.537.536.537h17.928c.295 0 .535-.24.535-.537V.537A.536.536 0 0 0 18.464 0zm-.537 25.882H1.073V1.074h16.854v24.808z"/><path d="M9.872 11.506l2.24.862a.536.536 0 0 0 .683-.285l.201-.455.059.24a.536.536 0 0 0 .666.388l2.58-.722a.54.54 0 0 0 .363-.696L15.48 7.44a2.46 2.46 0 0 0-2.189-3.575 2.455 2.455 0 0 0-2.2 3.553l-1.518 3.365a.543.543 0 0 0-.007.426.544.544 0 0 0 .306.297zm5.59-.853l-1.496.42-.551-2.294a2.437 2.437 0 0 0 1.248-.417l.799 2.291zm-2.17-5.713c.764 0 1.385.621 1.385 1.384a1.386 1.386 0 0 1-2.77 0c0-.763.623-1.384 1.385-1.384zm-1.43 3.382c.125.089.258.166.396.232l.318 1.363-.559 1.265-1.231-.475 1.076-2.385zM3.271 3.973h4.67a.538.538 0 1 0 0-1.075h-4.67a.538.538 0 0 0 0 1.075zm0 2.525h4.67a.538.538 0 0 0 0-1.075h-4.67a.536.536 0 0 0-.537.536c0 .297.241.539.537.539zm0 2.522h4.67a.537.537 0 1 0 0-1.074h-4.67a.538.538 0 0 0 0 1.074zm-.081 7.357h12.62a.536.536 0 0 0 0-1.073H3.19a.536.536 0 1 0 0 1.073zm0 3.145h12.62a.536.536 0 0 0 0-1.072H3.19a.535.535 0 1 0 0 1.072zm0 3.145h12.344c.006 0 .01-.004.016-.004.008 0 .012.004.018.004h.242a.536.536 0 0 0 0-1.074h-.242l-.018.002-.016-.002H3.19a.536.536 0 1 0 0 1.074z"/></g></svg>