<svg xmlns="http://www.w3.org/2000/svg" width="20.001" height="24.694"><path opacity=".2" fill="#00B181" d="M16.229 4.995l-5.99-1.767a.824.824 0 0 0-.477 0l-5.99 1.767a.848.848 0 0 0-.606.808v4.709c0 2.489.753 4.876 2.177 6.904a12.086 12.086 0 0 0 4.267 3.752.837.837 0 0 0 .783 0 12.112 12.112 0 0 0 4.267-3.752 11.95 11.95 0 0 0 2.177-6.904V5.803a.852.852 0 0 0-.608-.808z"/><path fill="#0054BB" d="M18.992 2.508L10.954.138a3.346 3.346 0 0 0-1.907 0l-8.039 2.37A1.413 1.413 0 0 0 0 3.856v6.656c0 3.082.917 6.047 2.653 8.579a15.172 15.172 0 0 0 6.815 5.499 1.414 1.414 0 0 0 1.063 0 15.17 15.17 0 0 0 6.816-5.499A15.107 15.107 0 0 0 20 10.512V3.856a1.412 1.412 0 0 0-1.008-1.348zm-.115 8.004c0 2.853-.851 5.599-2.455 7.943a14.06 14.06 0 0 1-6.314 5.093.286.286 0 0 1-.215 0 14.049 14.049 0 0 1-6.312-5.093 13.992 13.992 0 0 1-2.455-7.943V3.856c0-.124.083-.234.201-.27l8.038-2.371a2.287 2.287 0 0 1 1.272.001l8.037 2.371a.285.285 0 0 1 .203.27v6.655z"/><path fill="#0054BB" d="M16.229 4.995l-5.99-1.767a.824.824 0 0 0-.477 0l-5.99 1.767a.848.848 0 0 0-.606.808v4.709c0 2.489.753 4.876 2.177 6.904a12.086 12.086 0 0 0 4.267 3.752.837.837 0 0 0 .783 0 12.112 12.112 0 0 0 4.267-3.752 11.95 11.95 0 0 0 2.177-6.904V5.803a.852.852 0 0 0-.608-.808zm-.518 5.517c0 2.256-.684 4.42-1.974 6.257A10.99 10.99 0 0 1 10 20.103a10.978 10.978 0 0 1-3.736-3.334 10.826 10.826 0 0 1-1.973-6.257V6.014L10 4.329l5.711 1.685v4.498z"/></svg>