<svg xmlns="http://www.w3.org/2000/svg" width="45" height="44.985"><path fill="#00B181" d="M42.325 13.694H17.843a2.678 2.678 0 0 0-2.675 2.675v12.24c0 1.476 1.2 2.675 2.675 2.675h21.806c0 .02.002 0 .002 0h2.673a2.677 2.677 0 0 0 2.675-2.675v-12.24a2.676 2.676 0 0 0-2.674-2.675zm1.092 14.915c0 .603-.489 1.092-1.092 1.092h-24.48a1.093 1.093 0 0 1-1.092-1.092v-9.565h26.664v9.565zm0-11.149H16.753v-1.091c0-.602.49-1.092 1.092-1.092h24.48c.603 0 1.092.49 1.092 1.092v1.091z"/><path fill="#00B181" d="M24.436 21.227c-.46 0-.916.092-1.354.273l-.058.024-.058-.024a3.521 3.521 0 0 0-1.354-.273 3.62 3.62 0 0 0-3.617 3.616 3.622 3.622 0 0 0 3.617 3.617 3.55 3.55 0 0 0 1.355-.274l.057-.023.058.023c.439.182.896.274 1.354.274a3.62 3.62 0 0 0 3.616-3.617 3.62 3.62 0 0 0-3.616-3.616zm0 5.648c-.35 0-.69-.096-1.014-.283l-.398-.232-.399.232a1.995 1.995 0 0 1-1.013.283 2.035 2.035 0 0 1-2.033-2.033c0-1.121.912-2.033 2.033-2.033.35 0 .69.096 1.013.284l.399.232.399-.232a1.986 1.986 0 0 1 1.013-.284c1.121 0 2.033.912 2.033 2.033a2.035 2.035 0 0 1-2.033 2.033z"/><path fill="#0055B8" d="M24.844 31.284a20.462 20.462 0 0 1-6.563 5.679l-.107.059-.106-.059a20.466 20.466 0 0 1-6.954-6.202 20.158 20.158 0 0 1-3.67-11.642v-8.447l10.73-3.165.064.019 10.666 3.146v3.022h1.619v-3.241c0-.584-.392-1.107-.952-1.272L18.549 5.93a1.323 1.323 0 0 0-.749 0L6.777 9.181a1.333 1.333 0 0 0-.952 1.272v8.666A21.75 21.75 0 0 0 9.79 31.69a22.04 22.04 0 0 0 7.771 6.836c.377.198.852.197 1.228 0a22.058 22.058 0 0 0 7.771-6.836c.095-.134.184-.271.274-.406h-1.99z"/><path fill="#0055B8" d="M31.729 31.284a26.059 26.059 0 0 1-1.555 2.576 26.08 26.08 0 0 1-11.717 9.451.744.744 0 0 1-.565 0A26.076 26.076 0 0 1 6.175 33.86a25.972 25.972 0 0 1-4.557-14.741V6.871c0-.327.22-.62.533-.712L16.94 1.797a4.372 4.372 0 0 1 2.468 0l14.79 4.362a.746.746 0 0 1 .532.712v6.823h1.617V6.871c0-1.04-.695-1.97-1.692-2.264L19.866.245a5.989 5.989 0 0 0-3.383 0L1.693 4.606A2.376 2.376 0 0 0 0 6.871v12.248a27.577 27.577 0 0 0 4.841 15.657 27.722 27.722 0 0 0 12.44 10.035 2.376 2.376 0 0 0 1.785 0 27.716 27.716 0 0 0 12.442-10.035 27.85 27.85 0 0 0 2.034-3.492h-1.813z"/></svg>