<svg xmlns="http://www.w3.org/2000/svg" width="32" height="44.286"><path fill="#0055B8" d="M32 .732a.723.723 0 0 0-.214-.518.725.725 0 0 0-.517-.214H.731A.732.732 0 0 0 0 .731v42.824c0 .403.328.73.731.73h30.461c.402 0 .73-.326.731-.729L32 .732zm-1.537 42.093H1.462V1.462h29.074l-.073 41.363z"/><path fill="#00B181" d="M26.11 40.629l.236-2.06 2.06-.236a.735.735 0 0 0 .605-.483.738.738 0 0 0-.17-.758l-4.125-4.16.006-.072a4.433 4.433 0 0 0-4.412-4.785 4.433 4.433 0 0 0-4.412 4.781l.006.072-4.153 4.164a.736.736 0 0 0-.173.757c.093.264.33.454.607.485l2.059.237.235 2.059a.738.738 0 0 0 .487.607.74.74 0 0 0 .757-.176l4.144-4.152.072.006c.243.02.494.02.737 0l.073-.006 4.115 4.151a.745.745 0 0 0 .759.177.733.733 0 0 0 .487-.608zm-10.349-1.674l-.13-1.128a.728.728 0 0 0-.644-.643l-1.134-.131 2.518-2.523.103.178a4.456 4.456 0 0 0 1.622 1.627l.177.103-2.512 2.517zm4.55-3.486a2.969 2.969 0 0 1-2.965-2.967 2.968 2.968 0 0 1 2.965-2.965 2.968 2.968 0 0 1 2.966 2.965 2.97 2.97 0 0 1-2.966 2.967zm5.293 1.715a.726.726 0 0 0-.643.643l-.129 1.123-2.488-2.511.177-.103a4.443 4.443 0 0 0 1.624-1.623l.104-.178 2.495 2.518-1.14.131z"/><path fill="#0055B8" d="M12.002 30.652H5.161a.731.731 0 0 0 0 1.461h6.841a.731.731 0 0 0 0-1.461zm7.597-25.321h-7.197a.732.732 0 0 0 0 1.462h7.197a.732.732 0 0 0 0-1.462zm6.84 3.731H5.561a.732.732 0 0 0 0 1.462H26.44a.732.732 0 0 0-.001-1.462zm-3.909 6.13h-9.373a.732.732 0 0 0 0 1.462h9.373a.732.732 0 0 0 0-1.462zm-12.571 0H9.47a.732.732 0 0 0 0 1.462h.489a.732.732 0 0 0 0-1.462zm12.571 3.466h-9.373a.732.732 0 0 0 0 1.462h9.373a.732.732 0 0 0 0-1.462zm-12.571 0H9.47a.732.732 0 0 0 0 1.462h.489a.732.732 0 0 0 0-1.462zm12.571 3.554h-9.373a.732.732 0 0 0 0 1.462h9.373a.732.732 0 0 0 0-1.462zm-12.571 0H9.47a.732.732 0 0 0 0 1.462h.489a.732.732 0 0 0 0-1.462z"/></svg>