<?xml version="1.0" standalone="no"?>
<!DOCTYPE svg PUBLIC "-//W3C//DTD SVG 1.1//EN" "http://www.w3.org/Graphics/SVG/1.1/DTD/svg11.dtd" >
<svg xmlns="http://www.w3.org/2000/svg">
<metadata>Generated by IcoMoon</metadata>
<defs>
<font id="icomoon" horiz-adv-x="1024">
<font-face units-per-em="1024" ascent="960" descent="-64" />
<missing-glyph horiz-adv-x="1024" />
<glyph unicode="&#x20;" horiz-adv-x="512" d="" />
<glyph unicode="&#xe900;" horiz-adv-x="863" d="M612.057 697.989c25.153 0 45.682 20.529 45.682 45.682v170.646c0 25.215-20.529 45.682-45.682 45.682h-566.375c-25.215 0-45.682-20.468-45.682-45.682v-932.635c0-25.215 20.468-45.682 45.682-45.682h566.375c25.153 0 45.682 20.468 45.682 45.682v170.708c0 25.153-20.529 45.621-45.682 45.621s-45.682-20.468-45.682-45.621v-124.964h-475.072v841.271h475.010v-125.025c0.062-25.153 20.591-45.682 45.744-45.682z" />
<glyph unicode="&#xe901;" horiz-adv-x="863" d="M843.86 474.509l-154.247 154.186c-14.118 14.118-38.654 14.118-52.71 0.123-14.549-14.488-14.734-38.161-0.37-52.772l89.084-90.563h-394.434c-20.653 0-37.421-16.769-37.421-37.36s16.769-37.36 37.421-37.36h395.914l-90.317-90.317c-14.549-14.611-14.549-38.346 0-52.895 7.090-7.028 16.522-10.974 26.509-10.974 9.926 0 19.296 3.884 26.386 10.974l154.247 154.186c6.966 6.966 10.974 16.584 10.974 26.448s-4.007 19.296-11.035 26.324z" />
<glyph unicode="&#xe902;" horiz-adv-x="863" d="M663.288 248.194c-12.207 0-23.735 4.747-32.304 13.378-17.755 17.817-17.755 46.792 0 64.609l76.261 76.199h-376.063c-25.215 0-45.682 20.529-45.682 45.682s20.468 45.682 45.682 45.682h374.768l-75.274 76.507c-17.57 17.878-17.324 46.792 0.493 64.424 16.522 16.399 47.902 16.337 64.424-0.123l154.186-154.186c8.446-8.569 13.316-20.344 13.316-32.366s-4.87-23.735-13.316-32.243l-154.247-154.186c-8.631-8.631-20.098-13.378-32.243-13.378zM331.182 477.16c-16.091 0-29.16-13.070-29.16-29.16s13.070-29.16 29.16-29.16h415.95l-104.434-104.434c-11.405-11.405-11.405-29.838 0-41.244 11.035-11.035 30.147-11.035 41.244 0l154.186 154.186c5.425 5.425 8.508 12.946 8.508 20.591s-3.082 15.166-8.508 20.591l-154.186 154.186c-10.419 10.357-30.763 10.357-41.12 0.062-11.405-11.282-11.528-29.715-0.308-41.12l102.893-104.619h-414.224z" />
<glyph unicode="&#xe903;" horiz-adv-x="1261" d="M630.074 960l-630.074-236.237v-157.701h1260.602v157.701l-630.528 236.237z" />
<glyph unicode="&#xe904;" horiz-adv-x="1261" d="M78.851 487.224h157.336v-137.822h-157.336v137.822z" />
<glyph unicode="&#xe905;" horiz-adv-x="1261" d="M78.851 349.389h157.336v-137.796h-157.336v137.796z" />
<glyph unicode="&#xe906;" horiz-adv-x="1261" d="M78.851 211.606h157.336v-137.834h-157.336v137.834z" />
<glyph unicode="&#xe907;" horiz-adv-x="1261" d="M78.851 73.771h157.336v-137.746h-157.336v137.746z" />
<glyph unicode="&#xe908;" horiz-adv-x="1261" d="M316.462 487.224h157.248v-137.822h-157.248v137.822z" />
<glyph unicode="&#xe909;" horiz-adv-x="1261" d="M316.462 349.389h157.248v-137.796h-157.248v137.796z" />
<glyph unicode="&#xe90a;" horiz-adv-x="1261" d="M316.462 211.606h157.248v-137.834h-157.248v137.834z" />
<glyph unicode="&#xe90b;" horiz-adv-x="1261" d="M316.462 73.771h157.248v-137.746h-157.248v137.746z" />
<glyph unicode="&#xe90c;" horiz-adv-x="1261" d="M551.677 487.224h157.26v-137.822h-157.26v137.822z" />
<glyph unicode="&#xe90d;" horiz-adv-x="1261" d="M551.677 349.389h157.26v-137.796h-157.26v137.796z" />
<glyph unicode="&#xe90e;" horiz-adv-x="1261" d="M551.677 211.606h157.26v-137.834h-157.26v137.834z" />
<glyph unicode="&#xe90f;" horiz-adv-x="1261" d="M551.677 73.771h157.26v-137.746h-157.26v137.746z" />
<glyph unicode="&#xe910;" horiz-adv-x="1261" d="M786.351 487.224h157.336v-137.822h-157.336v137.822z" />
<glyph unicode="&#xe911;" horiz-adv-x="1261" d="M786.351 349.389h157.336v-137.796h-157.336v137.796z" />
<glyph unicode="&#xe912;" horiz-adv-x="1261" d="M786.351 211.606h157.336v-137.834h-157.336v137.834z" />
<glyph unicode="&#xe913;" horiz-adv-x="1261" d="M786.351 73.771h157.336v-137.746h-157.336v137.746z" />
<glyph unicode="&#xe914;" horiz-adv-x="1261" d="M1023.975 487.224h157.298v-137.822h-157.298v137.822z" />
<glyph unicode="&#xe915;" horiz-adv-x="1261" d="M1023.975 349.389h157.298v-137.796h-157.298v137.796z" />
<glyph unicode="&#xe916;" horiz-adv-x="1261" d="M1023.975 211.606h157.298v-137.834h-157.298v137.834z" />
<glyph unicode="&#xe917;" horiz-adv-x="1261" d="M1023.975 73.771h157.298v-137.746h-157.298v137.746z" />
<glyph unicode="&#xe918;" horiz-adv-x="1261" d="M0 487.224h1260.602v-137.822h-1260.602v137.822z" />
<glyph unicode="&#xe919;" horiz-adv-x="1261" d="M0 73.822h1260.602v-137.834h-1260.602v137.834z" />
<glyph unicode="&#xe91a;" d="M302.013 545.258l-71.48-71.814 230.2-230.2 512.022 512-71.769 71.747-440.253-440.52z" />
<glyph unicode="&#xe91b;" d="M921.489 447.978c0-225.302-184.253-409.466-409.511-409.466s-409.444 184.164-409.444 409.466 184.164 409.489 409.444 409.489c41.071 0 76.755-5.009 112.751-15.226l81.764 81.987c-61.507 20.547-128 35.773-194.515 35.773-281.444 0-511.978-230.534-511.978-512.022 0-281.466 230.534-512 511.978-512 281.511 0.022 512.022 230.534 512.022 512h-102.511z" />
<glyph unicode="&#xe91c;" horiz-adv-x="1015" d="M740.445 93.199c0.378 33.589-12.695 66.163-35.857 89.325l-44.613 44.613c-17.272 17.272-40.553 27.181-63.854 27.181-4.159 0-8.337-0.338-12.417-0.935l-0.517-0.080c-26.485-2.030-51.1-17.988-67.516-43.797l-0.298-0.418c-8.139-10.865-18.963-18.645-29.649-21.311l-0.816-0.219h-0.856c-14.028 0-24.694 3.323-34.624 10.745l-0.756 0.657-2.069 2.089c-81.843 66.501-138.534 123.232-195.663 195.722l-9.71 12.158c-5.85 8.775-5.85 15.203-5.85 22.605v1.154l0.358 1.055c2.826 8.437 6.089 14.407 14.466 19.978 29.012 17.849 46.543 44.473 50.98 77.167 2.209 31.798-9.611 64.75-30.883 86.002l-32.872 32.853c-22.605 22.605-54.204 35.559-86.698 35.559-35.579 0-65.486-12.198-86.499-35.3l-0.219-0.259-21.152-21.132c-34.027-34.046-49.11-81.763-40.374-127.669 27.162-151.945 122.277-263.855 211.721-353.299 81.564-81.584 194.628-179.087 346.315-209.412l0.338-0.080c8.556-2.129 15.103-2.129 24.157-2.129 31.698 0 62.362 13.71 84.131 37.688l0.239 0.219 35.24 35.24c22.724 21.709 35.419 51.517 35.817 84.032zM669.666 48.725l-35.22-35.24c-12.457-12.457-29.987-19.899-46.861-19.899-4.597 0-9.133 0.537-13.451 1.592-135.847 26.306-241.29 117.7-317.979 194.409-71.515 69.327-169.814 178.331-196.777 322.894-5.233 28.793 3.164 56.691 23.023 76.55l21.152 21.152c13.77 13.79 29.629 20.794 47.12 20.794 16.237 0 34.285-7.979 47.12-20.794l32.853-32.872c10.904-10.924 16.257-26.843 13.75-40.752-0.279-14.028-8.696-27.679-22.107-35.738-21.59-12.934-37.051-34.882-41.389-58.721-4.358-23.978 2.149-50.045 17.451-69.685l9.332-11.68c62.919-79.216 126.296-142.613 205.512-205.512l0.577-0.517 2.089-2.089c22.983-18.665 51.617-26.346 81.226-21.789 28.137 4.318 52.254 21.49 67.894 48.314l0.239 0.358c7.462 11.223 16.755 17.153 26.843 17.153 11.78 0 20.217-3.363 28.137-11.223l49.488-42.444c25.988-26.007 25.988-68.292-0.020-94.259z" />
<glyph unicode="&#xe91d;" horiz-adv-x="1015" d="M439.44 682.952c-15.103 0-28.355-13.252-28.355-28.355s13.252-28.355 28.355-28.355c133.241 0 241.668-108.387 241.668-241.648 0-15.103 13.233-28.355 28.336-28.355 15.123 0 28.355 13.252 28.355 28.355-0.020 164.541-133.838 298.359-298.359 298.359z" />
<glyph unicode="&#xe91e;" horiz-adv-x="1015" d="M439.44 960c-15.103 0-28.355-13.252-28.355-28.355s13.252-28.355 28.355-28.355c286.002 0 518.676-232.674 518.676-518.676 0-15.103 13.252-28.355 28.336-28.355 18.446 0 28.375 14.586 28.375 28.355 0 317.283-258.104 575.387-575.387 575.387z" />
<glyph unicode="&#xe91f;" horiz-adv-x="1015" d="M439.44 823.834c-15.103 0-28.355-13.252-28.355-28.355s13.252-28.355 28.355-28.355c101.741 0 197.712-39.917 270.143-112.347 72.471-72.471 112.347-168.402 112.347-270.163 0-15.103 13.252-28.355 28.375-28.355 15.103 0 28.355 13.252 28.355 28.355 0 242.185-197.016 439.221-439.221 439.221z" />
<glyph unicode="&#xe920;" horiz-adv-x="1237" d="M971.825 219.441c-0.731 0.225-1.462 0.38-2.207 0.492l-151.098 22.664c-24.436 15.803-26.741 55.015-26.783 97.475 47.732 49.18 77.482 118.41 77.482 195.006v6.2c37.047 32.885 58.122 79.549 58.122 129.39v116.23c-0.014 95.45-77.679 173.101-173.129 173.101h-251.807c-36.147 0-66.502-25.279-74.319-59.078-66.488-8.042-118.171-64.801-118.171-133.411v-96.842c0-49.841 21.075-96.491 58.122-129.39v-6.2c0-76.596 29.75-145.826 77.482-195.006-0.056-42.46-2.362-81.672-26.798-97.475l-151.084-22.664c-0.745-0.112-1.49-0.281-2.221-0.492-33.223-9.279-61.497-29.905-81.756-59.584-18.488-27.093-28.682-59.795-28.682-92.104v-75.036c0-31.283 27.894-56.716 62.214-56.716h802.885c34.319 0 62.214 25.448 62.214 56.716v75.036c0 32.309-10.193 65.011-28.667 92.104-20.302 29.666-48.562 50.305-81.799 59.584v0zM618.607 265.106c50.713 0 97.939 16.323 137.418 44.316 1.729-33.124 8.59-69.918 35.557-92.062-14.58-74.22-87.001-129.011-172.989-129.011-85.946 0-158.381 54.776-172.961 129.011 26.952 22.144 33.813 58.924 35.557 92.062 39.507-27.993 86.733-44.316 137.418-44.316v0zM404.353 547.942c0.098 1.097 0.098 2.207 0 3.304v100.048c0 32.717 26.615 59.317 59.317 59.317h329.289c10.024 0 18.151 8.126 18.151 18.165 0 10.024-8.126 18.165-18.151 18.165h-329.289c-52.737 0-95.633-42.91-95.633-95.647v-54.734c-14.102 21.806-21.82 47.353-21.82 74.108v96.856c0 54.059 44.006 98.051 98.079 98.051 10.024 0 18.165 8.14 18.165 18.165 0 22.017 17.912 39.943 39.957 39.943h251.793c75.43 0 136.785-61.37 136.785-136.785v-116.216c0-26.741-7.691-52.302-21.792-74.108v74.108c0 10.024-8.126 18.165-18.151 18.165s-18.165-8.126-18.165-18.165v-135.59c0-128.828-96.125-233.642-214.282-233.642-118.142 0-214.254 104.814-214.254 233.642v12.85zM1045.975-7.284c0-11.051-11.866-20.386-25.898-20.386h-802.913c-14.046 0-25.898 9.336-25.898 20.386v75.036c0 46.031 28.457 100.582 82.895 116.427l137.010 20.569c20.316-88.238 106.178-152.701 207.435-152.701 101.285 0 187.147 64.463 207.449 152.701l137.024-20.569c54.425-15.845 82.895-70.396 82.895-116.427v-75.036z" />
<glyph unicode="&#xe921;" horiz-adv-x="1237" d="M115.007 146.486h-68.358c-5.905 0-10.334 3.585-10.334 6.791v48.562c0 27.247 16.703 59.5 48.604 69.032l98.867 14.833c0.408 0.056 0.83 0.169 1.251 0.253 0.183 0.056 0.351 0.056 0.548 0.112 0.675 0.183 1.322 0.38 1.982 0.633 0.141 0.056 0.295 0.141 0.45 0.211 0.52 0.211 1.040 0.45 1.532 0.731 0.084 0.028 0.183 0.056 0.267 0.112 0.155 0.084 0.295 0.183 0.464 0.281 0.141 0.084 0.281 0.155 0.394 0.253 21.989 12.555 29.609 35.275 32.239 57.475 24.112-14.313 51.781-22.467 81.208-22.467 24.703 0 48.505 5.61 70.776 16.675 8.97 4.471 12.64 15.381 8.169 24.351-4.457 8.984-15.381 12.625-24.337 8.183-17.195-8.562-35.557-12.893-54.607-12.893-72.927 0-132.23 64.941-132.23 144.743v77.44c0 17.645 14.355 31.986 31.971 31.986h46.72c10.024 0 18.151 8.126 18.151 18.165 0 10.024-8.126 18.165-18.151 18.165h-46.72c-37.666 0-68.287-30.65-68.287-68.301v-9.518c-1.575 6.397-2.418 13.033-2.418 19.796v62.663c0 31.437 25.574 57.026 57.040 57.026 10.039 0 18.151 8.14 18.151 18.165 0 10.727 8.731 19.43 19.444 19.43h22.805c10.024 0 18.151 8.14 18.151 18.165 0 10.039-8.126 18.165-18.151 18.165h-22.805c-24.871 0-45.989-16.365-53.131-38.889-44.119-7.423-77.806-45.876-77.806-92.048v-62.663c0-33.645 14.031-65.138 38.734-87.577v-0.155c0-51.486 20.147-97.995 52.386-130.993-0.197-23.114-1.968-43.796-13.385-52.302l-96.238-14.439c-0.745-0.112-1.476-0.281-2.193-0.464-50.010-14.046-76.161-63.113-76.161-104.336v-48.562c0-23.761 20.921-43.121 46.65-43.121h68.358c10.024 0 18.165 8.14 18.165 18.179 0 10.024-8.14 18.151-18.165 18.151v0z" />
<glyph unicode="&#xe922;" horiz-adv-x="1237" d="M1161.095 306.132c-0.717 0.197-1.462 0.351-2.207 0.464l-96.224 14.439c-11.43 8.492-13.188 29.188-13.385 52.302 32.239 32.998 52.386 79.507 52.386 130.993v0.155c24.689 22.439 38.734 53.947 38.734 87.591v97.953c0 52.737-42.896 95.633-95.633 95.633h-58.122c-10.024 0-18.165-8.14-18.165-18.165 0-10.039 8.14-18.165 18.165-18.165h58.122c32.703 0 59.317-26.615 59.317-59.317v-97.981c0-6.763-0.858-13.385-2.418-19.782v9.532c0 37.652-30.636 68.273-68.287 68.273h-46.72c-10.024 0-18.165-8.14-18.165-18.165 0-10.039 8.14-18.165 18.165-18.165h46.72c17.631 0 31.971-14.341 31.971-31.957v-77.468c0-79.83-59.331-144.757-132.23-144.757-19.037 0-37.398 4.33-54.579 12.893-8.998 4.457-19.894 0.801-24.365-8.183s-0.801-19.88 8.169-24.351c22.27-11.051 46.073-16.675 70.776-16.675 29.441 0 57.11 8.155 81.208 22.467 2.629-22.2 10.249-44.92 32.239-57.475 0.127-0.098 0.267-0.169 0.394-0.253 0.155-0.098 0.309-0.197 0.478-0.281 0.070-0.056 0.169-0.084 0.253-0.112 0.492-0.281 0.998-0.52 1.532-0.731 0.155-0.070 0.295-0.155 0.45-0.211 0.661-0.225 1.308-0.45 1.982-0.619 0.197-0.042 0.366-0.070 0.548-0.127 0.422-0.084 0.844-0.197 1.265-0.253l98.839-14.833c31.929-9.504 48.618-41.799 48.618-69.032v-48.562c0-3.22-4.429-6.791-10.334-6.791h-68.358c-10.024 0-18.165-8.126-18.165-18.151 0-10.039 8.14-18.179 18.165-18.179h68.344c25.715 0 46.65 19.36 46.65 43.121v48.562c0.014 41.293-26.137 90.361-76.133 104.364v0z" />
<glyph unicode="&#xe923;" glyph-name="icon04" horiz-adv-x="1810" d="M1734.559 130.598c-53.936 64.663-117.319 119.757-177.289 178.204-54.119 52.839-57.532 83.495-13.956 144.44 47.354 66.491 98.487 130.423 146.39 196.609 44.612 61.92 90.443 123.597 113.967 197.706 14.932 47.050 1.706 67.954-46.623 76.181-8.349 1.463-16.882 1.463-25.475 1.463l-286.625 0.366c-35.348 0.549-54.851-14.871-67.344-46.135-16.882-42.296-34.19-84.592-54.363-125.486-45.526-92.454-96.415-181.982-167.782-257.737-15.724-16.638-33.093-37.847-59.421-29.132-32.971 12.006-42.601 66.186-42.113 84.531l-0.183 330.871c-6.338 47.232-16.943 68.38-63.749 77.522l-297.9-0.061c-39.736 0-59.665-15.297-80.935-40.224-12.25-14.383-15.907-23.708 9.264-28.461 49.426-9.325 77.278-41.321 84.653-90.93 11.823-79.168 11.031-158.701 4.205-238.174-2.011-23.22-6.034-46.44-15.297-68.015-14.383-34.19-37.664-41.016-68.137-20.051-27.669 19.015-47.172 45.709-66.125 72.647-71.428 100.864-128.472 209.773-174.913 324.106-13.347 33.032-36.567 53.083-71.489 53.571-86.055 1.341-172.048 1.646-258.103 0-51.742-1.036-67.162-26.085-46.075-73.073 93.673-208.432 197.95-411.075 334.040-595.556 69.904-94.77 150.108-178.386 253.836-237.564 117.441-67.283 243.902-87.395 377.128-81.118 62.347 2.925 81.179 19.076 83.982 81.301 2.011 42.418 6.765 84.836 27.791 122.987 20.539 37.542 51.742 44.673 87.7 21.392 17.918-11.762 33.032-26.633 47.415-42.235 35.043-38.456 68.929-77.949 105.374-115.125 45.709-46.562 99.889-73.926 167.843-68.319h263.649c42.357 2.682 64.48 54.79 40.102 102.144-17.126 33.154-39.614 62.713-63.444 91.357v0z" />
<glyph unicode="&#xe924;" glyph-name="icon05" horiz-adv-x="584" d="M562.045 959.775l-140.073 0.225c-157.369 0-259.122-104.314-259.122-265.816v-122.598h-140.837c-12.13 0-22.013-9.838-22.013-22.013v-177.63c0-12.13 9.883-21.968 22.013-21.968h140.882v-392.008c0-12.174 9.883-21.968 22.058-21.968h183.695c12.174 0 22.058 9.838 22.058 21.968v392.008h164.647c12.174 0 22.013 9.883 22.013 21.968l0.090 177.63c0 5.795-2.336 11.411-6.469 15.589-4.088 4.133-9.704 6.424-15.589 6.424h-164.692v103.909c0 49.911 11.905 75.293 76.91 75.293l94.43 0.045c12.174 0 22.013 9.928 22.013 22.013v164.871c-0.045 12.174-9.838 22.013-22.013 22.058v0z" />
<glyph unicode="&#xe925;" glyph-name="icon06" d="M977.78 960h-931.514c-25.647 0-46.266-20.62-46.266-46.22v-931.561c0-25.274 20.62-46.22 46.266-46.22h931.514c25.321 0 46.22 20.945 46.22 46.266v931.514c0 25.6-20.899 46.22-46.22 46.22v0zM511.814 626.548c98.816 0 178.781-79.965 178.781-178.409 0-98.816-79.965-178.735-178.781-178.735-98.351 0-178.362 79.965-178.362 178.735 0 98.444 80.012 178.409 178.362 178.409v0zM895.907 64.093h-767.721v447.814h84.015c-4.282-20.573-6.889-41.844-6.889-63.721 0-169.379 137.542-306.874 306.548-306.874 169.425 0 306.921 137.495 306.921 306.874 0 21.876-2.513 43.148-6.842 63.721h84.061v-447.814zM895.907 640h-191.86v191.86h191.86v-191.86z" />
<glyph unicode="&#xe926;" glyph-name="icon07" horiz-adv-x="1260" d="M1260.049 838.755c-46.295-20.534-96.184-34.441-148.406-40.695 53.342 32.015 94.317 82.65 113.591 142.992-49.935-29.634-105.284-51.149-164.18-62.722-47.135 50.262-114.291 81.67-188.681 81.67-142.759 0-258.497-115.738-258.497-258.497 0-20.301 2.287-39.995 6.72-58.942-214.908 10.827-405.363 113.731-532.861 270.117-22.261-38.175-35.001-82.603-35.001-129.972 0-89.697 45.688-168.8 115.038-215.142-42.422 1.307-82.277 12.927-117.138 32.295 0-1.073 0-2.147 0-3.22 0-125.258 89.137-229.749 207.348-253.503-21.701-5.927-44.522-9.054-68.136-9.054-16.614 0-32.855 1.587-48.629 4.667 32.901-102.717 128.385-177.48 241.509-179.534-88.483-69.349-199.928-110.698-321.079-110.698-20.861 0-41.442 1.213-61.649 3.64 114.384-73.363 250.283-116.158 396.262-116.158 475.552 0 735.495 393.882 735.495 735.542 0 11.2-0.187 22.354-0.747 33.461 50.542 36.401 94.364 81.95 129.038 133.752v0z" />
<glyph unicode="&#xe927;" glyph-name="icon08" horiz-adv-x="853" d="M721.875 210.998h-56.23l0.269 32.651c0 14.462 11.857 26.364 26.408 26.364h3.683c14.462 0 26.498-11.902 26.498-26.364l-0.629-32.651zM510.967 280.926c-14.192 0-25.869-9.566-25.869-21.333v-158.675c0-11.767 11.677-21.333 25.869-21.333 14.372 0 26.049 9.566 26.049 21.333v158.675c0.045 11.767-11.632 21.333-26.049 21.333v0zM853.333 369.673v-301.99c0-72.399-62.877-131.728-139.632-131.728h-574.114c-76.845 0.045-139.587 59.374-139.587 131.773v301.99c0 72.488 62.742 131.773 139.587 131.773h574.114c76.755-0.045 139.632-59.329 139.632-131.818v0zM177.898 34.942v318.069h71.186v47.158l-189.754 0.269v-46.305l59.194-0.18v-319.012h59.374zM391.231 305.673h-59.374v-169.858c0-24.567 1.482-36.828 0-41.185-4.806-13.159-26.498-27.127-34.987-1.392-1.392 4.491-0.18 18.055-0.18 41.409l-0.269 171.026h-59.015l0.225-168.331c0.045-25.78-0.629-45.047 0.225-53.805 1.392-15.495 0.898-33.46 15.225-43.745 26.723-19.222 77.923 2.874 90.633 30.406l-0.090-35.121 47.652-0.045v270.641h-0.045zM581.075 111.113l-0.090 141.474c-0.090 53.76-40.421 86.052-95.169 42.532l0.269 105.095-59.194-0.090-0.359-362.846 48.775 0.764 4.491 22.591c62.248-57.173 101.367-18.055 101.277 50.481v0zM766.787 129.886l-44.463-0.269c-0.090-1.707-0.18-3.773-0.18-5.973v-24.881c0-13.294-10.959-24.073-24.298-24.073h-8.668c-13.339 0-24.387 10.779-24.387 24.073v65.347h101.951v38.355c0 27.98-0.719 56.006-2.964 72.039-7.366 50.661-78.507 58.7-114.392 32.741-11.318-8.129-19.896-18.953-24.926-33.549-5.075-14.552-7.545-34.493-7.545-59.778v-84.255c-0.045-140.126 170.128-120.32 149.872 0.225v0zM538.543 587.542c3.054-7.366 7.815-13.429 14.282-17.965 6.333-4.536 14.462-6.737 24.298-6.737 8.488 0 16.034 2.291 22.726 7.051 6.557 4.761 12.126 11.812 16.573 21.288l-1.033-23.265h66.156v281.241h-52.098v-218.902c0-11.902-9.746-21.558-21.648-21.558s-21.648 9.656-21.648 21.558v218.902h-54.389v-189.709c0-24.163 0.449-40.286 1.213-48.46 0.629-8.084 2.47-15.854 5.569-23.444v0zM338.1 746.442c0 26.992 2.291 48.056 6.737 63.281 4.491 15.135 12.62 27.307 24.298 36.514s26.678 13.833 44.822 13.833c15.36 0 28.429-3.009 39.388-8.893 11.048-5.884 19.492-13.564 25.331-23.085 6.063-9.476 10.105-19.267 12.261-29.283 2.201-10.195 3.324-25.42 3.324-46.035v-71.141c0-26.049-1.123-45.272-3.054-57.443-2.021-12.216-6.422-23.579-13.069-34.178-6.647-10.554-15.091-18.414-25.42-23.399-10.42-5.12-22.321-7.545-35.84-7.545-15.091 0-27.801 2.066-38.265 6.467-10.509 4.267-18.594 10.824-24.387 19.447-5.884 8.668-9.881 19.222-12.441 31.528s-3.683 30.855-3.683 55.422v74.509zM389.839 634.7c0-15.944 11.947-28.924 26.408-28.924 14.372 0 26.229 12.98 26.229 28.924v149.738c0 15.899-11.857 28.924-26.229 28.924-14.462 0-26.408-13.025-26.408-28.924v-149.738zM206.866 559.113h62.428l0.045 215.714 73.746 184.814h-68.267l-39.208-137.252-39.747 137.611h-67.548l78.462-185.263 0.090-215.624z" />
<glyph unicode="&#xe928;" glyph-name="icon09" horiz-adv-x="996" d="M532.563 387.547l-47.263 36.742c-13.868 11.517-28.254 23.392-28.254 45.31 0 22.117 15.582 37.579 30.685 52.643l1.156 1.156c50.809 40.050 113.654 89.983 113.654 194.869 0 81.255-38.615 131.945-70.735 162.829h44.752c3.347 0 6.695 0.956 9.564 2.75l68.105 42.8c6.775 4.304 9.963 12.672 7.691 20.364-2.271 7.651-9.405 12.991-17.295 12.991h-238.147c-109.35 0-185.265-24.189-253.968-81.016-54.795-47.303-87.512-116.125-87.512-184.070 0-110.426 88.428-228.025 250.301-216.468-3.427-10.042-6.057-21.36-6.057-36.105 0-33.714 12.752-57.425 27.098-77.35-61.41-4.583-157.051-15.223-229.938-60.015-98.75-58.74-106.401-144.857-106.401-169.883 0-99.108 90.381-199.093 292.184-199.093 232.727 0 354.511 130.271 354.511 258.909 0.12 96.359-57.783 145.136-114.132 192.638zM230.814 846.944c18.531 23.153 50.291 38.097 80.936 38.097 97.076 0 150.755-133.978 150.755-226.63 0-14.107 0-57.106-28.653-85.918-19.288-19.248-51.925-32.677-79.223-32.677-105.684 0-149.519 142.506-149.519 218.78 0 37.978 8.408 66.909 25.704 88.349zM355.866 16.339c-129.036 0-215.751 58.7-215.751 146.012 0 56.907 33.793 96.757 102.894 121.823 56.189 18.929 130.67 20.244 132.384 20.244 11.357 0 17.215 0 24.986-0.837 92.613-65.953 133.659-98.271 133.659-159.562 0-78.745-68.264-127.681-178.172-127.681zM978.212 493.748h-112.538v112.139c0 9.963-8.090 18.012-18.052 18.012h-53.958c-9.963 0-18.052-8.090-18.052-18.012v-112.139h-111.94c-9.963 0-18.052-8.090-18.052-18.052v-54.675c0-9.963 8.090-18.092 18.052-18.092h111.94v-112.897c0-9.963 8.090-18.052 18.052-18.052h53.958c9.963 0 18.052 8.090 18.052 18.052v112.897h112.538c9.963 0 18.052 8.13 18.052 18.092v54.675c0 9.963-8.090 18.052-18.052 18.052z" />
<glyph unicode="&#xe929;" glyph-name="icon10" horiz-adv-x="1593" d="M841.005 941.222l733.461-733.347c12.518-12.632 18.778-27.54 18.778-44.497 0-17.184-6.259-31.979-18.664-44.497l-163.99-164.104c-12.632-12.518-27.313-18.778-44.497-18.778s-31.979 6.259-44.725 18.778l-524.746 524.86-524.86-524.86c-12.405-12.518-27.313-18.778-44.497-18.778s-31.751 6.259-44.383 18.778l-163.99 164.104c-12.518 12.518-18.891 27.313-18.891 44.497 0 16.957 6.487 31.865 18.891 44.497l733.233 733.347c12.632 12.405 27.54 18.778 44.497 18.778 17.298 0 31.979-6.373 44.383-18.778z" />
<glyph unicode="&#xe92a;" horiz-adv-x="662" d="M557.432 527.289l-3.734 3.632v229.958c0 109.786-82.955 199.121-184.917 199.121h-75.691c-101.962 0-184.917-89.336-184.917-199.121v-229.958l-3.734-3.632c-66.374-64.507-104.44-155.319-104.44-249.169 0-188.65 148.463-342.12 330.936-342.12s330.936 153.469 330.936 342.12c0 93.85-38.066 184.662-104.44 249.169zM512.73 564.829l-18.498 10.861c-8.333 4.888-17.26 9.555-26.475 13.882l-0.696 0.339c-1.476 0.696-2.732 1.256-3.988 1.816-1.969 0.899-3.869 1.731-5.77 2.546l-2.631 1.103c-2.851 1.205-5.668 2.342-8.503 3.428l-1.358 0.526c-29.292 11.116-59.993 17.871-91.338 20.077l-2.257 0.136c-2.614 0.17-5.21 0.305-7.824 0.39l-2.41 0.102c-6.89 0.221-13.407 0.221-19.992 0l-2.614-0.102c-2.495-0.102-5.125-0.238-7.722-0.39l-2.359-0.153c-31.464-2.206-62.403-9.029-91.864-20.297l-1.341-0.526c-2.631-1.018-5.244-2.070-7.841-3.174l-2.698-1.137c-1.901-0.815-3.802-1.646-5.685-2.495l-4.718-2.155c-9.266-4.362-18.159-9.029-26.526-13.916l-18.498-10.861v196.033c0 87.231 64.575 158.187 143.932 158.187h75.708c79.374 0 143.932-70.973 143.932-158.187v-196.033z" />
<glyph unicode="&#xe92b;" horiz-adv-x="662" d="M330.936-23.032c-159.901 0-289.985 135.090-289.985 301.152 0 108.428 56.7 208.982 147.937 262.457l0.526 0.305c1.188 0.713 2.41 1.409 3.615 2.087 1.544 0.866 3.089 1.714 4.633 2.529 2.58 1.409 5.312 2.834 8.061 4.192 0.815 0.407 1.714 0.849 2.614 1.273 30.446 14.765 62.861 23.861 96.328 27.052l1.239 0.102c3.615 0.339 7.603 0.611 11.608 0.798l1.069 0.051c8.655 0.39 16.275 0.373 24.421 0l1.205-0.034c4.124-0.204 8.129-0.475 12.1-0.849l-0.458-12.287 0.933 12.253 0.407-0.034c33.467-3.191 65.865-12.287 96.345-27.052l2.614-1.273c2.732-1.358 5.431-2.766 8.129-4.226 1.51-0.798 3.038-1.646 4.565-2.495 1.239-0.696 2.478-1.409 3.683-2.121l0.441-0.272c91.253-53.459 147.954-154.046 147.954-262.457 0-166.062-130.1-301.152-289.985-301.152z" />
<glyph unicode="&#xe92c;" horiz-adv-x="662" d="M408.188 154.18l-24.71 110.855 5.142 4.803c16.971 15.817 26.712 38.287 26.712 61.639 0 46.552-37.845 84.414-84.397 84.414s-84.397-37.845-84.397-84.414c0-23.335 9.724-45.822 26.695-61.656l5.142-4.786-24.71-110.838c-0.322-1.476-0.475-3.004-0.475-4.463 0-21.384 22.521-37.523 52.407-37.523h50.693c29.869 0 52.373 16.139 52.373 37.523 0 1.51-0.153 3.021-0.475 4.446z" />
<glyph unicode="&#xe92d;" horiz-adv-x="662" d="M366.456 153.179h-71.041l27.68 124.109-3.191 6.466c-1.935 3.937-5.040 7.094-8.944 9.113-14.476 7.518-23.471 22.3-23.471 38.592 0 23.963 19.483 43.463 43.446 43.463s43.446-19.483 43.446-43.463c0-16.275-8.995-31.074-23.488-38.592-3.903-2.020-6.992-5.176-8.944-9.113l-3.191-6.466 27.697-124.109z" />
<glyph unicode="&#xe92e;" glyph-name="icon14" d="M448.027 639.973h-128v-128h128v128zM991.987 767.973h-160.013v160.013c0.054 17.677-14.282 32.013-31.96 32.013h-576.027c-17.677 0-31.96-14.336-31.96-32.013v-160.013h-160.013c-17.677 0-32.013-14.282-32.013-31.96v-512c0-17.677 14.336-32.013 32.013-32.013h160.013v-223.987c0-17.731 14.282-32.013 31.96-32.013h576.027c17.677 0 32.013 14.336 32.013 32.013v223.987h160.013c17.677 0 32.013 14.336 32.013 32.013v512c-0.054 17.677-14.39 31.96-32.067 31.96zM256 895.973h512v-128h-512v128zM768-0.027h-512v384h512v-384zM960.027 255.973h-128v160.013c0 17.677-14.336 32.013-32.013 32.013h-576.027c-17.677 0-32.013-14.336-32.013-32.013v-160.013h-127.946v448.027h896v-448.027zM256 639.973h-128v-128h128v128zM704.027 287.987h-384v-64.027h384v64.027zM704.027 159.987h-384v-64.027h384v64.027zM896 639.973h-192.027v-64.027h192.027v64.027z" />
<glyph unicode="&#xe92f;" glyph-name="icon15" d="M512 960c-282.77 0-512-229.23-512-512s229.23-512 512-512 512 229.23 512 512-229.23 512-512 512zM702.269 316.684l-58.953-59.002-129.122 129.122-130.389-130.389-63.342 63.342 130.389 130.389-128.585 128.536 59.051 59.002 128.488-128.536 130.389 130.389 63.342-63.342-130.389-130.389 129.122-129.122z" />
<glyph unicode="&#xe930;" glyph-name="icon16" horiz-adv-x="784" d="M759.704 960h-735.196c-13.529 0-24.508-10.98-24.508-24.557v-974.886c0-13.578 10.98-24.557 24.508-24.557h473.743c6.323 0 12.058 2.5 16.42 6.47l0.049-0.049 0.588 0.539c0.098 0.098 0.294 0.245 0.392 0.343l260.473 236.896c4.951 4.46 8.088 10.882 8.088 18.087v737.156c0 13.578-10.98 24.557-24.557 24.557v0zM473.743 198.286v-213.221h-424.726v925.869h686.18v-688.14h-236.945c-13.529 0-24.508-10.98-24.508-24.508v0zM696.277 173.778l-173.518-157.735v157.735h173.518zM151.068 737.613h482.125v-49.016h-482.125v49.016zM151.068 623.258h482.125v-49.065h-482.125v49.065zM151.068 506.795h482.125v-49.016h-482.125v49.016z" />
<glyph unicode="&#xe931;" glyph-name="icon18" d="M512 920.104c260.322 0 472.104-211.782 472.104-472.104s-211.782-472.104-472.104-472.104c-260.322 0-472.104 211.782-472.104 472.104s211.782 472.104 472.104 472.104zM512 946.701c-275.429 0-498.701-223.272-498.701-498.701s223.272-498.701 498.701-498.701 498.701 223.272 498.701 498.701-223.272 498.701-498.701 498.701v0zM682.603 647.435l28.879-28.896-370.17-369.961-28.879 28.896 370.17 369.961zM711.426 277.4l-28.886-28.87-369.961 370.17 28.886 28.87 369.961-370.17zM512 419.136l-28.869 28.869 28.869 28.869 28.869-28.869-28.869-28.869z" />
<glyph unicode="&#xe932;" horiz-adv-x="1017" d="M526.244 163.163l4.070 651.526 144.094-184.711 343.009-89.293-231.373-227.323 30.423-316.616-290.223 166.417z" />
<glyph unicode="&#xe933;" horiz-adv-x="1017" d="M536.398 165.218l2.015 661.66-138.010-184.691-351.109-91.348 235.422-231.392-30.443-324.716 282.124 170.487z" />
<glyph unicode="&#xe934;" horiz-adv-x="1017" d="M389.092 592.214c-7.262 0-14.643 1.696-21.545 5.267-22.982 11.93-31.959 40.218-20.029 63.2l142.079 274.004c8.040 15.56 24.099 25.316 41.594 25.316 0.020 0 0.040 0 0.080 0 17.516-0.020 33.595-9.835 41.614-25.415l140.024-271.989c11.87-23.022 2.813-51.29-20.209-63.14-23.041-11.83-51.31-2.793-63.14 20.209l-98.51 191.314-100.305-193.449c-8.339-16.079-24.697-25.316-41.654-25.316z" />
<glyph unicode="&#xe935;" horiz-adv-x="1017" d="M279.291 273.583c-12.289 0-24.538 4.768-33.734 14.304l-232.39 240.589c-11.79 12.229-16.079 29.864-11.172 46.103 4.908 16.259 18.214 28.587 34.792 32.258l330.541 72.975c25.276 5.506 50.292-10.394 55.898-35.689 5.586-25.276-10.394-50.292-35.689-55.898l-248.709-54.881 174.158-180.302c17.974-18.633 17.456-48.317-1.157-66.292-9.077-8.798-20.827-13.167-32.537-13.167z" />
<glyph unicode="&#xe936;" horiz-adv-x="1017" d="M218.385-53.187c-9.995 0-19.929 3.172-28.208 9.416-14.224 10.713-21.166 28.567-17.895 46.063l60.885 326.77c4.748 25.435 29.206 42.133 54.681 37.505 25.435-4.748 42.233-29.226 37.485-54.681l-43.609-233.986 230.614 115.507c23.161 11.571 51.31 2.234 62.92-20.907 11.591-23.161 2.214-51.33-20.927-62.92l-314.94-157.799c-6.643-3.332-13.845-4.967-21.007-4.967z" />
<glyph unicode="&#xe937;" horiz-adv-x="1017" d="M834.86-64c-7.88 0-15.74 1.955-22.882 5.965l-301.494 168.592c-22.603 12.648-30.682 41.215-18.034 63.818 12.668 22.603 41.195 30.682 63.798 18.034l215.752-120.674-41.395 240.749c-2.633 15.321 2.494 30.902 13.645 41.694l93.562 90.311c18.693 17.974 48.337 17.436 66.292-1.177 17.974-18.633 17.456-48.317-1.177-66.292l-75.708-73.094 53.823-313.125c3.052-17.815-4.389-35.809-19.111-46.203-8.099-5.706-17.555-8.598-27.071-8.598z" />
<glyph unicode="&#xe938;" horiz-adv-x="1017" d="M932.634 808.21l30.23-27.065-287.627-321.263-30.23 27.065 287.627 321.263z" />
<glyph unicode="&#xe939;" horiz-adv-x="1017" d="M719.134 646.516c-43.21 0-78.002 33.854-79.219 77.064-0.598 21.186 7.082 41.315 21.665 56.716 14.543 15.381 34.213 24.179 55.359 24.777l2.214 0.020c43.23 0 78.042-33.854 79.259-77.084 0.598-21.166-7.082-41.295-21.665-56.696-14.543-15.381-34.213-24.159-55.379-24.757l-2.234-0.040z" />
<glyph unicode="&#xe93a;" horiz-adv-x="1017" d="M719.174 764.476c-11.411-0.299-21.007-4.588-28.089-12.109-7.122-7.501-10.872-17.316-10.573-27.65 0.559-21.106 17.555-37.624 38.642-37.624l1.117 0.020c10.354 0.279 19.929 4.568 27.031 12.069s10.852 17.316 10.553 27.65c-0.579 21.126-17.595 37.644-38.682 37.644z" />
<glyph unicode="&#xe93b;" horiz-adv-x="1017" d="M896.224 459.611c-43.21 0-78.002 33.854-79.219 77.064-0.579 21.166 7.082 41.295 21.665 56.696 14.543 15.381 34.213 24.179 55.359 24.777l2.214 0.020c43.25 0 78.062-33.854 79.279-77.084 0.598-21.166-7.102-41.295-21.665-56.696-14.563-15.381-34.233-24.159-55.379-24.757l-2.254-0.020z" />
<glyph unicode="&#xe93c;" horiz-adv-x="1017" d="M896.264 577.571c-11.411-0.299-21.007-4.588-28.089-12.109-7.122-7.501-10.872-17.316-10.553-27.65 0.559-21.106 17.555-37.624 38.622-37.624l1.137 0.020c10.334 0.279 19.929 4.568 27.011 12.069 7.102 7.501 10.852 17.316 10.573 27.65-0.598 21.106-17.595 37.644-38.702 37.644z" />
<glyph unicode="&#xe93d;" d="M512 913.455c256.652 0 465.455-208.803 465.455-465.455s-208.803-465.455-465.455-465.455-465.455 208.803-465.455 465.455c0 256.652 208.803 465.455 465.455 465.455zM512 944.485c-274.199 0-496.485-222.27-496.485-496.485 0-274.184 222.286-496.485 496.485-496.485s496.485 222.301 496.485 496.485c0 274.215-222.286 496.485-496.485 496.485v0z" />
<glyph unicode="&#xe93e;" d="M681.845 646.573l28.75-28.758-368.472-368.368-28.75 28.758 368.472 368.368z" />
<glyph unicode="&#xe93f;" d="M710.514 278.119l-28.756-28.731-368.264 368.576 28.756 28.731 368.264-368.576z" />
<glyph unicode="&#xe940;" d="M512.008 419.28l-28.742 28.767 28.767 28.742 28.742-28.767-28.767-28.742z" />
<glyph unicode="&#xe941;" glyph-name="ico23" d="M784.779 780.551c-31.866-0.312-57.502-27.772-56.879-60.751 0.712-32.445 27.905-58.971 59.816-58.348 30.62 0.579 57.814 28.439 57.636 58.837-0.401 33.113-27.95 60.662-60.573 60.261zM1019.505 676.184c-4.273 55.811-16.334 108.951-47.622 155.994-56.656 85.007-141.085 117.408-238.598 122.882-117.719 6.676-235.438 5.252-353.113 3.427-42.147-0.668-84.606-0.935-126.576-7.121-117.675-17.357-198.142-79.577-234.281-194.626-17.803-56.612-16.156-115.716-17.669-174.019-2.27-88.79-2.092-177.669 0-266.459 1.024-43.616 0.801-87.366 7.477-130.759 16.645-108.729 72.99-185.68 176.957-225.736 51.049-19.627 105.035-21.986 158.353-22.52 132.495-1.202 265.035-3.115 397.53 3.382 160.312 7.833 271.266 120.567 277.986 281.013 3.115 76.239 2.848 152.211 3.694 231.032-1.068 72.768 1.691 148.206-4.139 223.51zM931.872 218.971c-9.124-114.114-71.388-178.559-185.68-190.264-36.584-3.739-73.213-4.006-109.886-4.006-93.775-0.089-187.549-0.356-281.369 0.534-34.492 0.223-68.985 2.492-103.121 8.145-83.983 13.752-140.595 70.676-154.615 154.481-6.142 36.94-7.388 74.414-7.878 111.711-1.335 99.382-1.825 198.854 0.045 298.281 0.846 45.53 1.068 91.727 14.598 136.234 18.693 61.374 58.17 101.697 119.232 121.324 46.509 14.91 94.798 14.331 142.509 15.355 96.579 2.047 193.246 1.202 289.78 0.312 34.492-0.356 69.207-2.27 103.344-6.943 106.637-14.91 164.050-78.643 172.996-186.214 6.453-76.818 2.092-153.636 4.54-230.498-2.492-76.15 1.647-152.3-4.495-228.451zM513.78 709.43c-143.088 0.979-262.542-118.298-263.21-262.676-0.623-139.438 119.099-260.006 258.581-260.273 146.96-0.445 264.367 115.939 264.59 262.008 0.223 141.663-117.675 260.006-259.961 260.94zM515.605 274.159c-99.605-0.089-176.734 75.616-177.357 174.108-0.623 93.597 79.444 173.174 174.598 173.574 94.754 0.267 173.085-78.331 173.218-174.019 0.178-95.777-76.061-173.574-170.459-173.663z" />
<glyph unicode="&#xe942;" glyph-name="ico25" horiz-adv-x="1023" d="M457.318 277.897l497.886 497.835-28.279 28.245-469.606-469.879-169.25 169.318-28.075-28.211zM981.692 413.867c-17.527-243.797-221.508-436.804-469.726-436.804-259.635 0-470.869 211.268-470.869 470.921 0 259.669 211.234 470.921 470.869 470.921 39.066 0 74.496-3.959 109.943-12.407l33.109 33.195c-51.644 13.636-98.816 20.309-143.036 20.309-282.3 0-511.983-229.683-511.983-512.017 0-282.317 229.683-512 511.983-512 270.848 0.017 493.244 211.405 510.891 477.884h-41.182z" />
</font>
</defs>
</svg>
