<svg version="1.1" id="Шар_1" xmlns="http://www.w3.org/2000/svg" xmlns:xlink="http://www.w3.org/1999/xlink" x="0px" y="0px" width="30px" height="29.985px" viewBox="0 0 30 29.985" enable-background="new 0 0 30 29.985" xml:space="preserve">
							<g>
								<circle opacity="0.2" fill="#00B181" cx="15" cy="14.992" r="11.362"></circle>
								<g>
									<g>
										<path fill="#0055B8" d="M28.803,9.153c-1.582-3.688-4.27-6.37-7.988-7.955C18.957,0.405,17.01,0,14.976,0
																s-3.967,0.401-5.822,1.198C5.466,2.779,2.766,5.46,1.182,9.153C0.388,11.003,0,12.942,0,14.976c0,2.035,0.388,3.988,1.182,5.839
																c1.584,3.693,4.284,6.391,7.972,7.973c1.856,0.795,3.788,1.197,5.822,1.197c2.033,0,3.981-0.406,5.839-1.197
																c3.719-1.586,6.406-4.285,7.988-7.973C29.6,18.958,30,17.01,30,14.976C30,12.942,29.6,11.01,28.803,9.153z M26.408,21.602
																c-1.177,2.02-2.791,3.621-4.822,4.807c-2.02,1.178-4.231,1.771-6.61,1.771c-1.787,0-3.493-0.346-5.117-1.051
																s-3.026-1.631-4.199-2.805c-1.173-1.172-2.106-2.588-2.805-4.215c-0.696-1.621-1.033-3.346-1.033-5.134
																c0-2.378,0.585-4.579,1.755-6.594C4.751,6.36,6.365,4.758,8.383,3.576c2.017-1.181,4.215-1.771,6.593-1.771
																c2.379,0,4.591,0.594,6.609,1.771c2.032,1.185,3.642,2.788,4.823,4.806c1.181,2.018,1.771,4.216,1.771,6.594
																C28.18,17.354,27.593,19.571,26.408,21.602z"></path>
										<path fill="#00B181" d="M15.927,14.845V6.348c0-0.508-0.442-0.918-0.951-0.918c-0.476,0-0.902,0.41-0.902,0.918v8.628
																c0,0.017,0.033,0.082,0.033,0.132c-0.033,0.295,0.049,0.541,0.246,0.738l4.904,4.905c0.328,0.328,0.936,0.328,1.263,0
																c0.377-0.379,0.353-0.926,0-1.281L15.927,14.845z"></path>
									</g>
								</g>
							</g>
						</svg>
