<svg version="1.1" id="Слой_1" xmlns="http://www.w3.org/2000/svg" xmlns:xlink="http://www.w3.org/1999/xlink" x="0px" y="0px" width="23.999px" height="22.979px" viewBox="0 0 23.999 22.979" enable-background="new 0 0 23.999 22.979" xml:space="preserve">
<g>
	<path fill-rule="evenodd" clip-rule="evenodd" d="M12,0L12,0c0.868,0,1.579,0.71,1.579,1.579v5.87c0,0.869-0.711,1.579-1.579,1.579
		l0,0c-0.868,0-1.579-0.71-1.579-1.579v-5.87C10.421,0.71,11.132,0,12,0L12,0z"></path>
	<path fill-rule="evenodd" clip-rule="evenodd" d="M0.077,8.663L0.077,8.663C0.345,7.837,1.24,7.381,2.066,7.648l5.583,1.814
		c0.825,0.268,1.281,1.164,1.013,1.99l0,0c-0.269,0.826-1.163,1.282-1.989,1.014l-5.582-1.814C0.265,10.384-0.191,9.488,0.077,8.663
		L0.077,8.663z"></path>
	<path fill-rule="evenodd" clip-rule="evenodd" d="M4.631,22.679L4.631,22.679c-0.702-0.511-0.859-1.503-0.35-2.205l3.451-4.749
		c0.51-0.702,1.502-0.86,2.205-0.35l0,0c0.703,0.511,0.859,1.503,0.35,2.206l-3.45,4.748C6.327,23.032,5.334,23.19,4.631,22.679
		L4.631,22.679z"></path>
	<path fill-rule="evenodd" clip-rule="evenodd" d="M19.369,22.679L19.369,22.679c-0.703,0.511-1.695,0.354-2.205-0.35l-3.451-4.749
		c-0.51-0.702-0.353-1.694,0.35-2.205l0,0c0.702-0.511,1.695-0.353,2.205,0.35l3.451,4.749
		C20.229,21.176,20.072,22.168,19.369,22.679L19.369,22.679z"></path>
	<path fill-rule="evenodd" clip-rule="evenodd" d="M23.923,8.662L23.923,8.662c0.268,0.826-0.188,1.721-1.014,1.99l-5.582,1.814
		c-0.826,0.268-1.722-0.188-1.99-1.014l0,0c-0.269-0.826,0.188-1.721,1.014-1.99l5.583-1.814C22.759,7.38,23.655,7.836,23.923,8.662
		L23.923,8.662z"></path>
</g>
</svg>
