<svg version="1.1" id="Слой_1" xmlns="http://www.w3.org/2000/svg" xmlns:xlink="http://www.w3.org/1999/xlink" x="0px" y="0px" width="22px" height="22px" viewBox="0 0 22 22" enable-background="new 0 0 22 22" xml:space="preserve">
<g>
	<path d="M0.004,11.283C1.5,8.889,3.796,6.909,6.81,5.716C6.806,5.662,6.804,5.607,6.804,5.552c0-1.343,1.086-2.433,2.426-2.433l0,0
		c1.34,0,2.426,1.089,2.426,2.433c0,1.344-1.086,2.433-2.426,2.433c-0.745,0-1.449-0.344-1.909-0.933
		c-3.325,2.519-5.274,6.268-5.385,10.181c0.518,0.752,1.127,1.436,1.812,2.037c2.11-4.601,6.367-7.807,10.703-9.071
		c0-0.004,0-0.008,0-0.012c0-1.344,1.086-2.433,2.426-2.433l-0.001,0c1.34,0,2.426,1.089,2.426,2.433
		c0,1.343-1.086,2.433-2.426,2.433c-0.706-0.002-1.377-0.312-1.837-0.85c-3.068,1.227-6.597,4.891-7.399,9.707
		C8.698,21.816,9.827,22,11,22c6.075,0,11-4.925,11-11S17.075,0,11,0S0,4.925,0,11"></path>
</g>
</svg>
