<svg version="1.1" id="Слой_1" xmlns="http://www.w3.org/2000/svg" xmlns:xlink="http://www.w3.org/1999/xlink" x="0px" y="0px" width="22px" height="21.24px" viewBox="0 0 22 21.24" enable-background="new 0 0 22 21.24" xml:space="preserve">
<path d="M9.013,0.175c1.931-0.318,3.983-0.233,5.812,0.515c-0.416,0.037-0.83,0.09-1.246,0.123C9.887,1.188,6.463,3.811,5.354,7.386
	C5.083,8.186,5.06,9.035,4.95,9.864c0.093,0.999,0.235,2.019,0.69,2.927c0.677,1.369,1.86,2.52,3.312,3.034
	c1.312,0.501,2.818,0.492,4.11-0.067c1.804-0.732,3.158-2.48,3.379-4.418c0.12-1.351-0.075-2.803-0.905-3.915
	c-0.811-1.245-2.253-1.869-3.635-2.25c-0.088-0.966,0.234-1.928,0.795-2.707c0.615-0.804,1.512-1.387,2.484-1.649
	c3.674,1.328,6.438,4.897,6.794,8.792c0.024,1.024,0.087,2.067-0.151,3.073c-0.468,2.396-1.832,4.582-3.722,6.117
	c-1.635,1.324-3.653,2.176-5.742,2.406c-0.94,0.047-1.882,0.04-2.822-0.004c-1.973-0.297-3.895-1.064-5.465-2.31
	c-2.609-2.034-4.177-5.325-4.066-8.637c0.103-2.13,0.859-4.229,2.155-5.924C3.825,2.16,6.319,0.656,9.013,0.175z"></path>
</svg>
