<svg version="1.1" id="Шар_1" xmlns="http://www.w3.org/2000/svg" xmlns:xlink="http://www.w3.org/1999/xlink" x="0px" y="0px" width="19px" height="25.502px" viewBox="0 0 19 25.502" enable-background="new 0 0 19 25.502" xml:space="preserve">
									<g>
										<path opacity="0.2" fill="#00B181" d="M17.02,4.877h-2.032c-0.477,0-0.865-0.434-0.865-0.966V2.082c0-1.148-0.889-2.082-1.98-2.082
																			  H1.98C0.889,0,0,0.934,0,2.082V23.42c0,1.148,0.889,2.082,1.98,2.082H17.02c1.092,0,1.98-0.934,1.98-2.082V6.959
																			  C19,5.812,18.111,4.877,17.02,4.877z"></path>
										<g>
											<path fill="#0054BB" d="M15.19,13.006H3.81c-0.308,0-0.558,0.25-0.558,0.558c0,0.308,0.25,0.558,0.558,0.558H15.19
																	c0.308,0,0.558-0.25,0.558-0.558C15.748,13.256,15.498,13.006,15.19,13.006z"></path>
											<path fill="#0054BB" d="M15.19,16.258H3.81c-0.308,0-0.558,0.25-0.558,0.558s0.25,0.558,0.558,0.558H15.19
																	c0.308,0,0.558-0.25,0.558-0.558S15.498,16.258,15.19,16.258z"></path>
											<path fill="#0054BB" d="M3.81,20.625H15.19c0.308,0,0.558-0.25,0.558-0.558s-0.25-0.558-0.558-0.558H3.81
																	c-0.308,0-0.558,0.25-0.558,0.558S3.502,20.625,3.81,20.625z"></path>
											<path fill="#0054BB" d="M10.312,6.503H3.81c-0.308,0-0.558,0.25-0.558,0.558s0.25,0.558,0.558,0.558h6.503
																	c0.309,0,0.559-0.25,0.559-0.558S10.621,6.503,10.312,6.503z"></path>
											<path fill="#0054BB" d="M19,6.959c0-1.147-0.889-2.082-1.98-2.082h-2.032c-0.477,0-0.865-0.434-0.865-0.966V2.082
																	c0-1.148-0.889-2.082-1.98-2.082H1.98C0.889,0,0,0.934,0,2.082V23.42c0,1.148,0.889,2.082,1.98,2.082H17.02
																	c1.092,0,1.98-0.934,1.98-2.082V6.959z M17.884,23.42c0,0.533-0.388,0.967-0.864,0.967H1.98c-0.477,0-0.864-0.434-0.864-0.967
																	V2.082c0-0.533,0.388-0.966,0.864-0.966h10.161c0.477,0,0.865,0.433,0.865,0.966v1.829c0,1.147,0.889,2.082,1.98,2.082h2.032
																	c0.477,0,0.864,0.433,0.864,0.966V23.42z"></path>
											<path fill="#0054BB" d="M15.19,9.755H3.81c-0.308,0-0.558,0.25-0.558,0.558c0,0.308,0.25,0.558,0.558,0.558H15.19
																	c0.308,0,0.558-0.25,0.558-0.558C15.748,10.005,15.498,9.755,15.19,9.755z"></path>
										</g>
									</g>
									</svg>