<svg version="1.1" id="Шар_1" xmlns="http://www.w3.org/2000/svg" xmlns:xlink="http://www.w3.org/1999/xlink" x="0px" y="0px" width="19px" height="26.956px" viewBox="0 0 19 26.956" enable-background="new 0 0 19 26.956" xml:space="preserve">
									<g>
										<path opacity="0.2" fill="#00B181" d="M18.464,0H0.536C0.24,0,0,0.24,0,0.537v25.882c0,0.297,0.24,0.537,0.536,0.537h17.928
																			  c0.295,0,0.535-0.24,0.535-0.537V0.537C18.999,0.24,18.759,0,18.464,0z"></path>
										<g>
											<path fill="#0054BB" d="M18.464,0H0.536C0.24,0,0,0.24,0,0.537v25.882c0,0.297,0.24,0.537,0.536,0.537h17.928
																	c0.295,0,0.535-0.24,0.535-0.537V0.537C18.999,0.24,18.759,0,18.464,0z M17.927,25.882H1.073V1.074h16.854V25.882z"></path>
											<path fill="#0054BB" d="M9.872,11.506l2.24,0.862c0.062,0.023,0.129,0.035,0.193,0.035c0.207,0,0.402-0.121,0.49-0.32l0.201-0.455
																	l0.059,0.24c0.035,0.141,0.125,0.262,0.252,0.335c0.125,0.073,0.275,0.092,0.414,0.053l2.58-0.722
																	c0.145-0.042,0.264-0.139,0.332-0.271c0.07-0.131,0.08-0.284,0.031-0.425l-1.184-3.398c0.17-0.335,0.268-0.715,0.268-1.117
																	c0-1.354-1.1-2.458-2.457-2.458c-1.355,0-2.458,1.104-2.458,2.458c0,0.393,0.094,0.765,0.258,1.095l-1.518,3.365
																	c-0.061,0.136-0.062,0.289-0.007,0.426C9.624,11.345,9.733,11.453,9.872,11.506z M15.462,10.653l-1.496,0.42l-0.551-2.294
																	c0.459-0.022,0.889-0.174,1.248-0.417L15.462,10.653z M13.292,4.94c0.764,0,1.385,0.621,1.385,1.384s-0.621,1.384-1.385,1.384
																	c-0.762,0-1.385-0.621-1.385-1.384S12.53,4.94,13.292,4.94z M11.862,8.322c0.125,0.089,0.258,0.166,0.396,0.232l0.318,1.363
																	l-0.559,1.265l-1.231-0.475L11.862,8.322z"></path>
											<path fill="#0054BB" d="M3.271,3.973h4.67c0.297,0,0.538-0.241,0.538-0.537S8.238,2.898,7.941,2.898h-4.67
																	c-0.297,0-0.537,0.242-0.537,0.538S2.975,3.973,3.271,3.973z"></path>
											<path fill="#0054BB" d="M3.271,6.498h4.67c0.297,0,0.538-0.241,0.538-0.538C8.48,5.664,8.238,5.423,7.941,5.423h-4.67
																	c-0.297,0-0.537,0.24-0.537,0.536C2.734,6.256,2.975,6.498,3.271,6.498z"></path>
											<path fill="#0054BB" d="M3.271,9.02h4.67c0.297,0,0.538-0.24,0.538-0.536C8.48,8.188,8.238,7.946,7.941,7.946h-4.67
																	c-0.297,0-0.537,0.242-0.537,0.538S2.975,9.02,3.271,9.02z"></path>
											<path fill="#0054BB" d="M3.19,16.377H15.81c0.295,0,0.535-0.24,0.535-0.537c0-0.296-0.24-0.536-0.535-0.536H3.19
																	c-0.297,0-0.537,0.24-0.537,0.536C2.653,16.137,2.894,16.377,3.19,16.377z"></path>
											<path fill="#0054BB" d="M3.19,19.522H15.81c0.295,0,0.535-0.24,0.535-0.536c0-0.298-0.24-0.536-0.535-0.536H3.19
																	c-0.297,0-0.537,0.238-0.537,0.536C2.653,19.282,2.894,19.522,3.19,19.522z"></path>
											<path fill="#0054BB" d="M3.19,22.667h12.344c0.006,0,0.01-0.004,0.016-0.004c0.008,0,0.012,0.004,0.018,0.004h0.242
																	c0.295,0,0.535-0.24,0.535-0.537s-0.24-0.537-0.535-0.537h-0.242c-0.006,0-0.01,0.002-0.018,0.002
																	c-0.006,0-0.01-0.002-0.016-0.002H3.19c-0.297,0-0.537,0.24-0.537,0.537S2.894,22.667,3.19,22.667z"></path>
										</g>
									</g>
									</svg>