<svg version="1.1" id="Шар_1" xmlns="http://www.w3.org/2000/svg" xmlns:xlink="http://www.w3.org/1999/xlink" x="0px" y="0px" width="20.001px" height="24.694px" viewBox="0 0 20.001 24.694" enable-background="new 0 0 20.001 24.694" xml:space="preserve">
									<g>
										<path opacity="0.2" fill="#00B181" d="M16.229,4.995l-5.99-1.767c-0.155-0.047-0.319-0.047-0.477,0l-5.99,1.767
																			  C3.416,5.099,3.166,5.432,3.166,5.803v4.709c0,2.489,0.753,4.876,2.177,6.904c1.104,1.572,2.579,2.869,4.267,3.752
																			  c0.122,0.064,0.257,0.098,0.391,0.098c0.135,0,0.269-0.033,0.392-0.098c1.686-0.883,3.162-2.18,4.267-3.752
																			  c1.424-2.027,2.177-4.415,2.177-6.904V5.803C16.835,5.432,16.585,5.099,16.229,4.995z"></path>
										<g>
											<g>
												<path fill="#0054BB" d="M18.992,2.508l-8.038-2.37c-0.624-0.185-1.284-0.185-1.907,0l-8.039,2.37C0.414,2.683,0,3.238,0,3.856
																		v6.656c0,3.082,0.917,6.047,2.653,8.579c1.692,2.472,4.05,4.373,6.815,5.499C9.641,24.659,9.82,24.694,10,24.694
																		c0.181,0,0.36-0.035,0.531-0.104c2.766-1.126,5.124-3.027,6.816-5.499c1.735-2.531,2.653-5.497,2.653-8.579V3.856
																		C20.001,3.238,19.586,2.683,18.992,2.508z M18.877,10.512c0,2.853-0.851,5.599-2.455,7.943c-1.569,2.289-3.752,4.051-6.314,5.093
																		c-0.068,0.028-0.146,0.028-0.215,0c-2.562-1.042-4.744-2.804-6.312-5.093c-1.606-2.344-2.455-5.09-2.455-7.943V3.856
																		c0-0.124,0.083-0.234,0.201-0.27l8.038-2.371C9.573,1.155,9.786,1.125,10,1.125c0.215,0,0.428,0.031,0.637,0.091l8.037,2.371
																		c0.119,0.036,0.203,0.146,0.203,0.27V10.512z"></path>
											</g>
										</g>
										<g>
											<g>
												<path fill="#0054BB" d="M16.229,4.995l-5.99-1.767c-0.155-0.047-0.319-0.047-0.477,0l-5.99,1.767
																		C3.416,5.099,3.166,5.432,3.166,5.803v4.709c0,2.489,0.753,4.876,2.177,6.904c1.104,1.572,2.579,2.869,4.267,3.752
																		c0.122,0.064,0.257,0.098,0.391,0.098c0.135,0,0.269-0.033,0.392-0.098c1.686-0.883,3.162-2.18,4.267-3.752
																		c1.424-2.027,2.177-4.415,2.177-6.904V5.803C16.835,5.432,16.585,5.099,16.229,4.995z M15.711,10.512
																		c0,2.256-0.684,4.42-1.974,6.257c-0.973,1.385-2.263,2.535-3.737,3.334c-1.474-0.799-2.764-1.949-3.736-3.334
																		c-1.291-1.837-1.973-4.001-1.973-6.257V6.014L10,4.329l5.711,1.685V10.512z"></path>
											</g>
										</g>
									</g>
									</svg>