<?xml version="1.0" encoding="utf-8"?>
<!-- Generator: Adobe Illustrator 16.0.0, SVG Export Plug-In . SVG Version: 6.00 Build 0)  -->
<!DOCTYPE svg PUBLIC "-//W3C//DTD SVG 1.1//EN" "http://www.w3.org/Graphics/SVG/1.1/DTD/svg11.dtd">
<svg version="1.1" id="Слой_1" xmlns="http://www.w3.org/2000/svg" xmlns:xlink="http://www.w3.org/1999/xlink" x="0px" y="0px"
	 width="45px" height="44.985px" viewBox="0 0 45 44.985" enable-background="new 0 0 45 44.985" xml:space="preserve">
<g>
	<path fill="#00B181" d="M42.325,13.694h-4.857h-1.583h-2.184h-1.583h-2.183h-1.584h-2.183h-1.583h-2.184h-1.583h-2.975
		c-1.475,0-2.675,1.2-2.675,2.675v12.24c0,1.476,1.2,2.675,2.675,2.675h2.033h1.583h14.003h4.187c0,0.02,0.002,0,0.002,0h1.582
		h1.091c1.476,0,2.675-1.199,2.675-2.675v-12.24C45,14.894,43.801,13.694,42.325,13.694z M43.417,28.609
		c0,0.603-0.489,1.092-1.092,1.092h-1.091h-7.111H17.845c-0.602,0-1.092-0.489-1.092-1.092v-9.565h26.664V28.609z M43.417,17.46
		H16.753v-1.091c0-0.602,0.49-1.092,1.092-1.092h24.48c0.603,0,1.092,0.49,1.092,1.092V17.46z"/>
	<path fill="#00B181" d="M24.436,21.227c-0.46,0-0.916,0.092-1.354,0.273l-0.058,0.024L22.966,21.5
		c-0.439-0.182-0.895-0.273-1.354-0.273c-1.994,0-3.617,1.622-3.617,3.616c0,1.994,1.623,3.617,3.617,3.617
		c0.459,0,0.915-0.093,1.355-0.274l0.057-0.023l0.058,0.023c0.439,0.182,0.896,0.274,1.354,0.274c1.994,0,3.616-1.623,3.616-3.617
		C28.052,22.849,26.43,21.227,24.436,21.227z M24.436,26.875c-0.35,0-0.69-0.096-1.014-0.283l-0.398-0.232l-0.399,0.232
		c-0.323,0.188-0.664,0.283-1.013,0.283c-1.121,0-2.033-0.912-2.033-2.033c0-1.121,0.912-2.033,2.033-2.033
		c0.35,0,0.69,0.096,1.013,0.284l0.399,0.232l0.399-0.232c0.321-0.188,0.662-0.284,1.013-0.284c1.121,0,2.033,0.912,2.033,2.033
		C26.469,25.963,25.557,26.875,24.436,26.875z"/>
	<path fill="#0055B8" d="M24.844,31.284c-1.759,2.338-4.012,4.297-6.563,5.679l-0.107,0.059l-0.106-0.059
		c-2.742-1.485-5.146-3.63-6.954-6.202c-2.4-3.419-3.67-7.444-3.67-11.642v-8.447l10.73-3.165l0.064,0.019l10.666,3.146v3.022h1.031
		h0.588v-3.241c0-0.584-0.392-1.107-0.952-1.272L18.549,5.93c-0.122-0.036-0.248-0.054-0.375-0.054S17.921,5.895,17.8,5.93
		L6.777,9.181c-0.561,0.165-0.952,0.688-0.952,1.272v8.666c0,4.532,1.371,8.88,3.965,12.571c2.011,2.863,4.698,5.227,7.771,6.836
		c0.377,0.198,0.852,0.197,1.228,0c3.072-1.609,5.759-3.973,7.771-6.836c0.095-0.134,0.184-0.271,0.274-0.406H24.844z"/>
	<path fill="#0055B8" d="M31.729,31.284c-0.467,0.884-0.984,1.744-1.555,2.576c-2.912,4.25-6.964,7.518-11.717,9.451
		c-0.091,0.037-0.186,0.057-0.283,0.057c-0.097,0-0.191-0.02-0.282-0.057c-4.754-1.934-8.806-5.201-11.717-9.451
		c-2.98-4.35-4.557-9.447-4.557-14.741V6.871c0-0.327,0.22-0.62,0.533-0.712L16.94,1.797c0.804-0.237,1.664-0.237,2.468,0
		l14.79,4.362c0.313,0.092,0.532,0.385,0.532,0.712v6.823h1.154h0.463V6.871c0-1.04-0.695-1.97-1.692-2.264L19.866,0.245
		C19.315,0.083,18.746,0,18.174,0c-0.571,0-1.141,0.083-1.691,0.245L1.693,4.606C0.696,4.901,0,5.832,0,6.871v12.248
		c0,5.622,1.674,11.036,4.841,15.657c3.091,4.51,7.394,7.98,12.44,10.035c0.574,0.232,1.212,0.232,1.785,0
		c5.048-2.055,9.351-5.525,12.442-10.035c0.767-1.12,1.444-2.287,2.034-3.492H31.729z"/>
</g>
</svg>
