<?xml version="1.0" encoding="utf-8"?>
<!-- Generator: Adobe Illustrator 16.0.0, SVG Export Plug-In . SVG Version: 6.00 Build 0)  -->
<!DOCTYPE svg PUBLIC "-//W3C//DTD SVG 1.1//EN" "http://www.w3.org/Graphics/SVG/1.1/DTD/svg11.dtd">
<svg version="1.1" id="Слой_1" xmlns="http://www.w3.org/2000/svg" xmlns:xlink="http://www.w3.org/1999/xlink" x="0px" y="0px"
	 width="32px" height="44.286px" viewBox="0 0 32 44.286" enable-background="new 0 0 32 44.286" xml:space="preserve">
<g>
	<path fill="#0055B8" d="M32,0.732c0-0.196-0.075-0.38-0.214-0.518C31.648,0.076,31.465,0,31.269,0H0.731C0.328,0,0,0.328,0,0.731
		v42.824c0,0.403,0.328,0.73,0.731,0.73h30.461c0.402,0,0.73-0.326,0.731-0.729L32,0.732z M30.463,42.825H1.462V1.462h29.074
		L30.463,42.825z"/>
	<path fill="#00B181" d="M26.11,40.629l0.236-2.06l2.06-0.236c0.275-0.032,0.514-0.222,0.605-0.483
		c0.092-0.264,0.025-0.561-0.17-0.758l-4.125-4.16l0.006-0.072c0.01-0.118,0.016-0.236,0.016-0.357c0-2.441-1.986-4.428-4.428-4.428
		s-4.428,1.986-4.428,4.428c0,0.119,0.006,0.236,0.016,0.353l0.006,0.072l-4.153,4.164c-0.196,0.197-0.265,0.495-0.173,0.757
		c0.093,0.264,0.33,0.454,0.607,0.485l2.059,0.237l0.235,2.059c0.032,0.276,0.224,0.516,0.487,0.607
		c0.259,0.09,0.561,0.021,0.757-0.176l4.144-4.152l0.072,0.006c0.243,0.02,0.494,0.02,0.737,0l0.073-0.006l4.115,4.151
		c0.193,0.195,0.497,0.267,0.759,0.177C25.888,41.145,26.079,40.907,26.11,40.629z M15.761,38.955l-0.13-1.128
		c-0.039-0.34-0.304-0.604-0.644-0.643l-1.134-0.131l2.518-2.523l0.103,0.178c0.388,0.674,0.949,1.236,1.622,1.627l0.177,0.103
		L15.761,38.955z M20.311,35.469c-1.635,0-2.965-1.33-2.965-2.967c0-1.635,1.33-2.965,2.965-2.965c1.636,0,2.966,1.33,2.966,2.965
		C23.276,34.139,21.946,35.469,20.311,35.469z M25.604,37.184c-0.34,0.038-0.604,0.303-0.643,0.643l-0.129,1.123l-2.488-2.511
		l0.177-0.103c0.674-0.389,1.235-0.95,1.624-1.623l0.104-0.178l2.495,2.518L25.604,37.184z"/>
	<path fill="#0055B8" d="M12.002,30.652H5.161c-0.403,0-0.731,0.328-0.731,0.731s0.328,0.73,0.731,0.73h6.841
		c0.403,0,0.731-0.327,0.731-0.73S12.405,30.652,12.002,30.652z"/>
	<path fill="#0055B8" d="M19.599,5.331h-7.197c-0.402,0-0.73,0.328-0.73,0.731c0,0.403,0.328,0.731,0.73,0.731h7.197
		c0.402,0,0.73-0.328,0.73-0.731C20.329,5.659,20.001,5.331,19.599,5.331z"/>
	<path fill="#0055B8" d="M26.439,9.062H5.561c-0.403,0-0.731,0.328-0.731,0.731c0,0.403,0.328,0.731,0.731,0.731h20.879
		c0.403,0,0.731-0.329,0.731-0.731C27.171,9.39,26.843,9.062,26.439,9.062z"/>
	<path fill="#0055B8" d="M22.53,15.192h-9.373c-0.403,0-0.731,0.328-0.731,0.731s0.328,0.731,0.731,0.731h9.373
		c0.403,0,0.731-0.328,0.731-0.731S22.934,15.192,22.53,15.192z"/>
	<path fill="#0055B8" d="M9.959,15.192H9.47c-0.403,0-0.731,0.328-0.731,0.731s0.328,0.731,0.731,0.731h0.489
		c0.402,0,0.73-0.328,0.73-0.731S10.361,15.192,9.959,15.192z"/>
	<path fill="#0055B8" d="M22.53,18.658h-9.373c-0.403,0-0.731,0.328-0.731,0.731c0,0.403,0.328,0.731,0.731,0.731h9.373
		c0.403,0,0.731-0.328,0.731-0.731C23.262,18.986,22.934,18.658,22.53,18.658z"/>
	<path fill="#0055B8" d="M9.959,18.658H9.47c-0.403,0-0.731,0.328-0.731,0.731c0,0.403,0.328,0.731,0.731,0.731h0.489
		c0.402,0,0.73-0.328,0.73-0.731C10.689,18.986,10.361,18.658,9.959,18.658z"/>
	<path fill="#0055B8" d="M22.53,22.212h-9.373c-0.403,0-0.731,0.328-0.731,0.731c0,0.403,0.328,0.731,0.731,0.731h9.373
		c0.403,0,0.731-0.328,0.731-0.731C23.262,22.54,22.934,22.212,22.53,22.212z"/>
	<path fill="#0055B8" d="M9.959,22.212H9.47c-0.403,0-0.731,0.328-0.731,0.731c0,0.403,0.328,0.731,0.731,0.731h0.489
		c0.402,0,0.73-0.328,0.73-0.731C10.689,22.54,10.361,22.212,9.959,22.212z"/>
</g>
</svg>
